<?xml version="1.0" encoding="UTF-8" standalone="no"?>
<!DOCTYPE svg PUBLIC "-//W3C//DTD SVG 20010904//EN" "http://www.w3.org/TR/2001/REC-SVG-20010904/DTD/svg10.dtd">
<svg version="1.0" xmlns="http://www.w3.org/2000/svg" width="1280.000000pt" height="853.000000pt" viewBox="0 0 1280.000000 853.000000" preserveAspectRatio="xMidYMid meet">
<metadata>
Created by potrace 1.15, written by Peter Selinger 2001-2017
</metadata>
<g transform="translate(0.000000,853.000000) scale(0.100000,-0.100000)" fill="#000000" stroke="none">
<path d="M0 8045 l0 -486 25 -24 c23 -24 28 -25 176 -25 l152 0 -22 24 c-30 32 -38 94 -17 134 34 66 110 102 215 102 94 0 139 -16 188 -65 37 -37 43 -48 43 -85 0 -26 -8 -56 -21 -76 l-21 -34 129 0 c180 0 173 -8 173 217 0 94 3 178 6 187 4 10 18 16 40 16 29 0 38 -6 59 -40 47 -75 106 -71 147 11 26 49 24 150 -3 207 -38 77 -96 78 -144 2 -21 -34 -30 -40 -59 -40 -22 0 -36 6 -40 16 -3 9 -6 102 -6 208 0 188 -1 193 -23 214 -23 22 -24 22 -510 22 l-487 0 0 -485z"/>
<path d="M1122 8510 c-21 -20 -22 -29 -22 -170 l0 -150 33 20 c71 44 153 13 197 -75 21 -42 25 -64 25 -135 0 -72 -4 -93 -25 -134 -45 -88 -115 -116 -190 -77 l-40 21 0 -149 0 -150 27 -21 c26 -20 32 -21 469 -18 410 3 445 4 461 21 16 15 19 43 23 225 l5 207 36 3 c33 3 39 -1 59 -33 33 -54 62 -70 96 -53 47 22 69 72 69 158 0 82 -18 128 -59 155 -36 24 -73 10 -99 -36 -22 -39 -48 -54 -84 -47 -17 3 -18 20 -23 212 -5 204 -5 208 -29 227 -22 18 -45 19 -465 19 -431 0 -443 -1 -464 -20z"/>
<path d="M2175 8505 c-24 -23 -25 -28 -25 -174 l0 -150 36 24 c113 77 228 -27 228 -207 0 -66 -5 -85 -30 -134 -47 -93 -132 -119 -206 -64 l-28 21 0 -140 c0 -150 7 -182 47 -200 16 -7 160 -11 453 -11 l429 0 28 24 28 24 5 204 5 203 35 0 c28 0 38 -6 61 -39 32 -48 61 -61 97 -44 40 20 65 79 65 156 0 78 -20 133 -57 157 -37 24 -70 12 -103 -38 -25 -36 -34 -42 -63 -42 l-35 0 -5 200 c-3 110 -9 208 -14 218 -4 10 -17 22 -27 27 -10 6 -192 10 -459 10 l-441 0 -24 -25z"/>
<path d="M3235 8505 c-24 -23 -25 -28 -25 -176 l0 -152 26 24 c21 19 36 24 81 24 51 0 57 -3 93 -41 45 -49 60 -94 60 -185 0 -76 -13 -120 -47 -167 -48 -64 -115 -79 -177 -37 l-36 24 0 -128 c0 -184 -12 -175 227 -181 l188 -5 3 -36 c3 -33 -1 -39 -33 -59 -54 -33 -70 -62 -53 -96 22 -47 72 -69 158 -69 83 0 128 18 156 60 24 36 11 70 -36 97 -40 23 -55 49 -48 85 3 17 20 18 212 23 204 5 208 5 227 29 18 22 19 45 19 483 l0 459 -25 24 -24 25 -461 0 -461 0 -24 -25z"/>
<path d="M4312 8507 c-22 -23 -22 -25 -22 -488 l0 -466 23 -21 c22 -21 33 -22 171 -22 l147 0 -21 30 c-49 69 -19 158 69 203 46 23 67 27 136 27 69 0 90 -4 135 -27 30 -16 63 -40 74 -55 27 -38 26 -109 -3 -148 l-22 -30 130 0 c184 0 175 -12 181 226 5 173 7 189 23 192 35 7 62 -7 80 -41 60 -111 163 -36 161 118 -1 151 -93 214 -162 111 -24 -35 -33 -41 -62 -41 l-35 0 -5 208 c-5 205 -5 209 -29 228 -22 18 -45 19 -485 19 l-463 0 -21 -23z"/>
<path d="M5405 8505 c-24 -23 -25 -28 -25 -176 l0 -152 24 22 c36 34 105 39 150 12 56 -35 86 -107 86 -208 0 -90 -15 -141 -53 -181 -52 -57 -113 -66 -171 -27 l-36 24 0 -150 c0 -146 1 -151 25 -174 l24 -25 440 0 440 0 28 24 28 24 3 206 3 206 35 0 c28 0 38 -6 61 -41 72 -109 163 -43 163 117 0 154 -95 215 -165 104 -20 -32 -31 -40 -55 -40 -16 0 -32 5 -35 10 -4 6 -6 91 -5 189 1 181 -6 223 -38 247 -13 11 -112 13 -460 14 l-443 0 -24 -25z"/>
<path d="M6462 8507 c-21 -22 -22 -33 -22 -171 l0 -148 34 21 c69 43 149 15 196 -69 22 -39 25 -57 25 -140 0 -83 -3 -101 -25 -140 -35 -63 -83 -93 -138 -87 -26 3 -53 14 -68 28 l-24 22 0 -156 0 -156 26 -20 c26 -21 37 -21 464 -21 416 0 439 1 461 19 24 19 24 23 29 228 l5 208 37 3 c34 3 39 0 63 -38 36 -56 67 -70 103 -43 44 32 57 69 57 158 0 89 -19 134 -63 155 -30 13 -78 -3 -87 -29 -16 -51 -94 -83 -109 -45 -3 9 -6 100 -6 203 0 175 -1 190 -21 215 l-20 26 -448 0 -448 0 -21 -23z"/>
<path d="M7532 8523 c-32 -13 -42 -61 -42 -202 l0 -140 36 24 c74 50 156 22 203 -70 22 -42 26 -62 25 -135 0 -99 -26 -166 -78 -203 -43 -30 -113 -30 -155 1 l-31 23 0 -121 c0 -121 7 -152 39 -177 11 -9 69 -12 192 -13 144 0 179 -3 189 -15 20 -24 3 -63 -40 -90 -96 -61 -43 -151 95 -163 154 -13 243 90 139 160 -45 30 -63 70 -43 94 9 11 51 14 208 14 185 0 199 1 219 20 l22 21 0 469 c0 457 -1 471 -20 490 -19 19 -33 20 -482 19 -255 0 -469 -3 -476 -6z"/>
<path d="M8595 8505 l-25 -24 0 -461 0 -461 25 -24 c23 -24 28 -25 176 -25 l152 0 -24 26 c-19 20 -24 36 -24 79 0 48 4 58 34 89 19 19 54 42 79 51 58 19 166 19 224 0 107 -37 153 -153 88 -223 l-21 -22 134 0 c185 0 176 -11 179 230 l3 185 37 3 c34 3 39 0 63 -38 47 -75 106 -71 147 11 42 81 11 233 -51 259 -38 15 -63 2 -96 -50 -21 -34 -31 -40 -59 -40 -22 0 -36 6 -40 16 -3 9 -6 103 -6 209 l0 194 -26 20 c-26 21 -36 21 -486 21 l-459 0 -24 -25z"/>
<path d="M9694 8516 c-17 -13 -20 -31 -24 -170 -3 -86 -4 -156 -3 -156 2 0 17 9 35 20 72 44 154 13 198 -75 21 -42 25 -64 25 -135 0 -72 -4 -93 -25 -134 -45 -88 -115 -116 -190 -77 l-40 21 0 -149 0 -150 27 -21 c26 -20 32 -21 469 -18 410 3 445 4 461 21 16 15 19 43 23 225 l5 207 32 3 c24 2 37 -3 50 -19 49 -62 73 -80 95 -74 102 29 118 259 23 321 -36 23 -66 11 -103 -41 -29 -41 -36 -46 -65 -43 l-32 3 -5 208 c-5 205 -5 209 -29 228 -22 18 -45 19 -465 19 -366 0 -446 -2 -462 -14z"/>
<path d="M10745 8505 c-24 -23 -25 -28 -25 -174 l0 -150 36 24 c75 51 154 22 200 -72 39 -79 39 -187 1 -264 -32 -64 -65 -90 -121 -96 -32 -4 -49 1 -78 21 l-38 25 0 -147 c0 -129 3 -150 20 -172 l19 -25 445 -3 444 -3 29 25 28 24 5 204 5 203 35 0 c28 0 38 -6 61 -39 32 -48 61 -61 97 -44 40 20 65 79 65 156 0 78 -20 133 -57 157 -37 24 -70 12 -103 -38 -25 -36 -34 -42 -63 -42 l-35 0 -5 200 c-3 110 -9 208 -14 218 -4 10 -17 22 -27 27 -10 6 -192 10 -459 10 l-441 0 -24 -25z"/>
<path d="M11802 8507 c-21 -22 -22 -33 -22 -176 l0 -152 22 21 c70 65 186 19 223 -88 18 -53 20 -165 4 -213 -26 -75 -87 -129 -147 -129 -16 0 -46 11 -66 25 l-36 24 0 -128 c0 -184 -12 -175 227 -181 l188 -5 3 -36 c3 -32 -1 -38 -38 -63 -54 -36 -68 -67 -46 -100 28 -43 73 -61 156 -61 83 0 128 18 156 60 22 34 5 76 -42 101 -35 19 -49 46 -42 81 3 17 20 18 212 23 204 5 208 5 227 29 18 22 19 46 19 507 l0 484 -488 0 -489 0 -21 -23z"/>
<path d="M455 7696 c-53 -15 -95 -53 -95 -87 0 -20 26 -49 74 -82 21 -15 26 -25 24 -50 l-3 -32 -200 -5 c-110 -3 -208 -9 -218 -14 -10 -4 -22 -17 -27 -27 -6 -10 -10 -192 -10 -459 l0 -441 25 -24 c23 -24 28 -25 175 -25 l151 0 -21 28 c-55 75 -29 158 65 207 50 25 69 30 134 30 176 0 282 -118 206 -229 l-24 -36 150 0 c146 0 151 1 174 25 l25 24 0 441 c0 267 -4 449 -10 459 -5 10 -17 23 -27 27 -10 5 -108 11 -218 14 l-200 5 -3 32 c-3 27 3 35 42 63 53 36 66 69 41 106 -33 50 -143 74 -230 50z"/>
<path d="M4775 7704 c-11 -3 -30 -7 -42 -9 -12 -3 -35 -17 -52 -31 -42 -35 -42 -73 0 -108 17 -14 35 -26 39 -26 16 0 32 -41 26 -66 l-6 -24 -199 0 c-185 0 -200 -1 -225 -21 l-26 -20 0 -454 0 -454 26 -20 c24 -19 40 -21 176 -21 l150 0 -26 31 c-56 66 -24 161 69 208 41 20 64 25 130 24 120 0 203 -44 224 -120 11 -38 -1 -94 -24 -113 -8 -7 -15 -16 -15 -21 0 -5 65 -9 144 -9 139 0 146 1 173 24 l28 24 0 447 0 447 -28 24 c-28 24 -31 24 -226 24 -217 0 -220 1 -200 58 5 16 25 36 44 47 62 32 60 102 -3 134 -38 19 -122 33 -157 25z"/>
<path d="M9025 7696 c-53 -15 -95 -53 -95 -87 0 -20 26 -49 74 -82 21 -15 26 -25 24 -50 l-3 -32 -200 -5 c-110 -3 -208 -9 -218 -14 -10 -4 -22 -17 -27 -27 -6 -10 -10 -192 -10 -459 l0 -441 25 -24 c23 -24 28 -25 175 -25 l151 0 -21 28 c-55 75 -29 158 65 207 50 25 69 30 134 30 63 0 86 -5 133 -28 64 -31 89 -63 95 -121 4 -32 -1 -49 -21 -78 l-25 -38 150 0 c146 0 151 1 174 25 l25 24 0 441 c0 267 -4 449 -10 459 -5 10 -17 23 -27 27 -10 5 -108 11 -218 14 l-200 5 0 35 c0 29 6 38 42 63 50 33 62 66 38 103 -33 50 -143 74 -230 50z"/>
<path d="M3214 7428 c-42 -20 -44 -40 -44 -488 l0 -429 24 -28 24 -28 204 -5 203 -5 0 -35 c0 -28 -6 -38 -39 -61 -48 -32 -61 -61 -44 -97 20 -40 79 -65 156 -65 78 0 133 20 157 57 25 37 12 70 -41 106 -39 28 -45 36 -42 63 l3 32 200 5 c202 5 236 11 249 46 3 8 6 213 6 455 l0 440 -25 24 c-23 24 -28 25 -174 25 l-150 0 24 -36 c77 -113 -27 -228 -206 -228 -63 0 -86 5 -130 27 -30 15 -63 39 -74 55 -28 38 -27 111 3 151 l23 31 -143 -1 c-79 0 -153 -5 -164 -11z"/>
<path d="M7486 7419 l-26 -20 0 -449 c0 -426 1 -449 19 -471 19 -24 23 -24 228 -29 l208 -5 3 -27 c3 -27 -3 -35 -65 -84 -118 -93 98 -198 249 -122 65 32 65 99 -1 136 -39 22 -57 56 -45 86 5 12 38 15 209 18 183 3 205 5 224 22 21 19 21 24 21 472 l0 453 -26 20 c-24 19 -40 21 -169 21 l-142 0 24 -49 c30 -60 25 -97 -18 -146 -42 -47 -107 -70 -199 -69 -131 1 -220 65 -220 159 0 27 7 51 20 68 11 14 20 28 20 31 0 3 -65 6 -144 6 -130 0 -146 -2 -170 -21z"/>
<path d="M11783 7430 c-12 -5 -26 -18 -32 -29 -7 -13 -11 -166 -11 -455 l0 -435 24 -28 24 -28 204 -5 203 -5 0 -35 c0 -28 -6 -38 -39 -61 -48 -32 -61 -61 -44 -97 20 -40 79 -65 156 -65 78 0 133 20 157 57 25 37 12 70 -41 106 -39 28 -45 36 -42 63 l3 32 200 5 c202 5 236 11 249 46 3 8 6 213 6 455 l0 440 -25 24 c-23 24 -28 25 -174 25 l-150 0 24 -36 c51 -75 22 -154 -72 -200 -79 -39 -186 -39 -266 -1 -63 31 -88 63 -94 121 -4 32 1 49 21 79 l25 37 -142 -1 c-78 0 -152 -4 -164 -9z"/>
<path d="M1174 7347 c-2 -7 -3 -107 -2 -222 l3 -210 73 -5 c62 -4 71 -3 66 10 -16 39 -15 50 10 74 21 22 34 26 81 26 46 0 60 -4 80 -25 26 -25 33 -59 15 -70 -23 -14 -6 -20 52 -16 35 1 66 8 70 15 4 6 8 46 8 88 0 42 4 79 9 83 6 3 21 -7 35 -22 21 -23 29 -26 44 -17 24 15 36 72 23 107 -15 38 -40 46 -62 19 -9 -12 -24 -22 -33 -22 -13 0 -16 14 -16 88 0 55 -4 92 -12 100 -18 18 -437 17 -444 -1z"/>
<path d="M1667 7354 c-4 -4 -7 -38 -7 -75 l0 -67 30 11 c26 10 32 8 54 -12 68 -64 17 -218 -61 -182 l-24 11 3 -73 3 -72 204 -3 c142 -2 208 1 217 9 10 8 14 37 14 100 0 48 4 91 10 94 5 3 21 -5 34 -19 29 -32 40 -32 60 -4 30 42 10 128 -29 128 -8 0 -20 -9 -27 -20 -7 -11 -21 -20 -30 -20 -15 0 -18 13 -20 98 l-3 97 -211 3 c-115 1 -213 -1 -217 -4z"/>
<path d="M2136 7344 c-3 -8 -6 -42 -6 -75 0 -57 1 -59 21 -49 88 47 141 -129 56 -185 -19 -12 -31 -13 -51 -6 l-26 11 0 -64 c0 -42 5 -67 14 -75 9 -8 75 -11 217 -9 l204 3 3 98 c2 86 5 97 21 97 10 0 26 -9 36 -20 22 -24 29 -25 49 -4 18 18 21 85 6 115 -14 25 -46 24 -60 -1 -6 -11 -19 -20 -30 -20 -18 0 -20 9 -22 98 l-3 97 -211 3 c-187 2 -212 0 -218 -14z"/>
<path d="M2610 7341 c-13 -24 -13 -131 -1 -131 6 0 13 5 16 10 11 18 45 11 70 -15 62 -61 6 -213 -64 -176 -11 6 -22 11 -25 11 -11 0 -6 -106 6 -118 7 -7 44 -12 95 -12 74 0 83 -2 83 -18 0 -11 -9 -27 -20 -37 -25 -23 -25 -41 -1 -55 41 -21 131 -6 131 22 0 7 -10 22 -21 34 -38 41 -20 53 83 56 l93 3 0 220 0 220 -217 3 c-207 2 -218 1 -228 -17z"/>
<path d="M5460 7341 c-15 -29 -14 -403 2 -419 7 -7 39 -12 74 -12 l63 0 -6 33 c-7 46 31 77 93 77 79 0 115 -34 101 -92 -6 -22 -4 -23 56 -18 l62 5 3 85 c2 47 7 89 12 94 6 6 20 0 38 -17 33 -32 36 -32 56 -11 18 18 21 85 6 115 -14 25 -46 24 -60 -1 -6 -11 -19 -20 -30 -20 -18 0 -20 9 -22 98 l-3 97 -217 3 c-207 2 -218 1 -228 -17z"/>
<path d="M5952 7348 c-14 -14 -16 -138 -3 -138 6 0 13 5 16 10 11 18 45 11 70 -15 62 -61 6 -213 -64 -176 -30 17 -31 15 -31 -45 0 -98 -10 -94 225 -94 239 0 225 -7 225 119 0 44 4 82 9 86 6 3 21 -7 35 -22 21 -22 29 -26 43 -17 37 23 37 115 0 138 -12 8 -22 5 -40 -12 -40 -38 -47 -29 -47 59 0 126 14 119 -223 119 -145 0 -206 -3 -215 -12z"/>
<path d="M6427 7353 c-4 -3 -7 -37 -7 -74 l0 -69 25 12 c81 37 126 -138 49 -189 -20 -13 -30 -14 -50 -4 l-25 11 3 -73 3 -72 204 -3 c142 -2 208 1 217 9 10 8 14 37 14 100 0 48 4 91 10 94 5 3 19 -6 32 -20 27 -31 42 -32 62 -3 30 42 10 128 -29 128 -8 0 -20 -9 -27 -20 -7 -11 -21 -20 -30 -20 -16 0 -18 11 -18 84 0 46 -3 91 -6 100 -5 14 -34 16 -213 16 -114 0 -211 -3 -214 -7z"/>
<path d="M6897 7353 c-4 -3 -7 -37 -7 -74 l0 -69 25 12 c85 39 132 -126 53 -185 -23 -17 -31 -19 -53 -9 l-26 12 3 -62 3 -63 90 -5 c74 -4 90 -8 93 -22 2 -9 -6 -22 -17 -28 -23 -12 -27 -40 -9 -58 21 -21 102 -15 124 9 19 21 19 21 -10 44 -19 15 -27 29 -23 39 5 13 24 16 101 16 76 0 95 3 100 16 3 9 6 103 6 209 0 106 -3 200 -6 209 -5 14 -35 16 -223 16 -120 0 -221 -3 -224 -7z"/>
<path d="M9744 7347 c-2 -7 -3 -107 -2 -222 l3 -210 73 -5 c62 -4 71 -3 66 10 -16 39 -15 50 10 74 21 22 34 26 81 26 46 0 60 -4 80 -25 26 -25 33 -59 15 -70 -23 -14 -7 -20 47 -17 32 2 64 9 71 14 8 7 12 38 12 89 0 43 4 80 9 84 6 3 21 -7 35 -22 21 -23 29 -26 44 -17 24 15 36 72 23 107 -15 38 -40 46 -62 19 -9 -12 -24 -22 -33 -22 -13 0 -16 14 -16 88 0 55 -4 92 -12 100 -18 18 -437 17 -444 -1z"/>
<path d="M10237 7353 c-4 -3 -7 -37 -7 -74 l0 -67 29 11 c25 9 33 8 50 -7 11 -10 25 -34 32 -53 24 -75 -31 -160 -87 -134 l-25 11 3 -73 3 -72 204 -3 c142 -2 208 1 217 9 10 8 14 37 14 100 0 48 4 91 10 94 5 3 21 -5 34 -19 29 -32 40 -32 60 -4 20 29 20 77 0 106 -19 27 -40 28 -56 2 -7 -11 -21 -20 -30 -20 -16 0 -18 11 -18 84 0 46 -3 91 -6 100 -5 14 -34 16 -213 16 -114 0 -211 -3 -214 -7z"/>
<path d="M10706 7344 c-3 -8 -6 -42 -6 -75 0 -57 1 -59 21 -49 89 48 141 -129 54 -186 -21 -13 -31 -15 -50 -6 l-25 12 0 -64 c0 -42 5 -67 14 -75 9 -8 75 -11 217 -9 l204 3 3 95 c2 52 7 99 11 103 5 5 21 -3 36 -17 33 -30 38 -31 59 -10 18 18 21 85 6 115 -14 25 -46 24 -60 -1 -6 -11 -19 -20 -30 -20 -18 0 -20 9 -22 98 l-3 97 -211 3 c-187 2 -212 0 -218 -14z"/>
<path d="M11182 7348 c-14 -14 -17 -138 -3 -138 6 0 13 5 16 10 11 18 45 11 70 -15 62 -61 6 -213 -64 -176 -11 6 -22 11 -25 11 -11 0 -6 -106 6 -118 7 -7 43 -12 90 -12 89 0 107 -14 69 -54 -26 -28 -27 -42 -2 -56 42 -22 131 -6 131 24 0 7 -9 21 -20 31 -11 10 -20 26 -20 36 0 16 11 19 98 21 l97 3 0 220 0 220 -215 3 c-159 2 -219 -1 -228 -10z"/>
<path d="M1348 6979 c-23 -13 -23 -32 2 -54 11 -10 20 -26 20 -36 0 -16 -11 -19 -97 -21 l-98 -3 -3 -204 c-2 -142 1 -208 9 -217 8 -9 33 -14 75 -14 68 0 70 1 54 30 -23 43 27 90 96 90 73 0 121 -50 94 -99 -10 -20 -9 -21 52 -21 35 0 69 4 76 8 9 7 12 57 10 218 l-3 209 -95 5 c-78 4 -95 8 -98 22 -2 9 6 22 17 28 26 14 27 46 2 60 -25 13 -91 13 -113 -1z"/>
<path d="M5632 6978 c-18 -18 -14 -44 10 -60 14 -9 19 -20 15 -31 -5 -14 -21 -17 -95 -17 -55 0 -92 -4 -100 -12 -9 -9 -12 -68 -12 -204 0 -228 -2 -224 96 -224 63 0 64 1 54 21 -29 54 28 105 107 96 61 -7 86 -32 80 -79 l-5 -38 63 0 c41 0 66 5 74 14 8 9 11 75 9 217 l-3 204 -95 3 c-52 2 -99 7 -104 12 -6 6 0 20 17 38 32 33 32 36 11 56 -19 19 -104 22 -122 4z"/>
<path d="M9918 6979 c-23 -13 -23 -32 2 -54 11 -10 20 -26 20 -36 0 -16 -11 -19 -97 -21 l-98 -3 -3 -204 c-2 -142 1 -208 9 -217 11 -13 139 -21 139 -9 0 3 -5 14 -12 25 -26 41 27 90 98 90 73 0 121 -50 94 -99 -10 -20 -9 -21 53 -21 43 0 68 5 76 14 8 9 11 75 9 217 l-3 204 -95 5 c-78 4 -95 8 -98 22 -2 9 6 22 17 28 26 14 27 46 2 60 -25 13 -91 13 -113 -1z"/>
<path d="M2597 6863 c-13 -12 -8 -408 5 -421 8 -8 45 -12 100 -12 74 0 88 -3 88 -16 0 -9 -10 -24 -22 -33 -43 -36 14 -81 81 -64 48 12 63 39 34 63 -13 10 -23 25 -23 34 0 13 14 16 89 16 63 0 92 4 100 14 8 9 11 75 9 217 l-3 204 -73 3 c-70 3 -73 2 -63 -17 16 -29 14 -39 -14 -66 -20 -21 -34 -25 -80 -25 -46 0 -60 4 -80 25 -28 27 -30 37 -15 66 10 18 7 19 -58 19 -38 0 -72 -3 -75 -7z"/>
<path d="M6882 6858 c-9 -9 -12 -68 -12 -204 0 -162 3 -195 16 -208 12 -12 37 -16 105 -16 72 0 89 -3 89 -15 0 -8 -9 -20 -20 -27 -63 -40 22 -99 94 -67 36 17 39 37 11 63 -43 40 -33 46 69 46 67 0 97 4 105 14 8 9 11 75 9 217 l-3 204 -72 3 c-67 3 -71 2 -66 -17 15 -57 -23 -91 -101 -91 -62 0 -100 31 -93 77 l6 33 -63 0 c-35 0 -67 -5 -74 -12z"/>
<path d="M11167 6863 c-13 -12 -8 -408 5 -421 8 -8 45 -12 100 -12 74 0 88 -3 88 -16 0 -9 -10 -24 -22 -33 -43 -36 14 -81 81 -64 48 12 63 39 34 63 -13 10 -23 25 -23 34 0 13 14 16 89 16 63 0 92 4 100 14 8 9 11 75 9 217 l-3 204 -73 3 c-70 3 -73 2 -63 -17 16 -29 14 -39 -14 -66 -20 -21 -34 -25 -80 -25 -46 0 -60 4 -80 25 -28 27 -30 37 -15 66 10 18 7 19 -58 19 -38 0 -72 -3 -75 -7z"/>
<path d="M441 6637 c-37 -14 -81 -59 -81 -83 0 -15 31 -49 79 -87 16 -13 21 -26 19 -50 l-3 -32 -208 -5 c-205 -5 -209 -5 -228 -29 -18 -22 -19 -45 -19 -465 l0 -443 23 -21 c22 -21 33 -22 177 -22 l153 0 -24 26 c-19 20 -24 37 -24 74 0 61 24 97 91 130 41 21 63 25 139 25 77 0 96 -3 135 -25 55 -31 90 -81 90 -129 0 -34 -20 -77 -44 -93 -6 -4 59 -8 145 -8 150 0 156 1 177 23 22 23 22 25 22 464 0 419 -1 442 -19 464 -19 24 -23 24 -228 29 l-208 5 -3 32 c-3 29 2 36 43 65 25 18 48 43 52 56 8 33 -14 68 -56 89 -45 21 -155 27 -200 10z"/>
<path d="M4725 6635 c-91 -32 -101 -106 -21 -153 39 -23 56 -63 36 -87 -10 -12 -48 -15 -211 -15 -186 0 -200 -1 -219 -20 -19 -19 -20 -33 -20 -474 l0 -455 22 -15 c18 -13 53 -16 170 -16 l147 0 -20 35 c-81 136 100 267 296 214 124 -33 180 -152 109 -230 -17 -19 -13 -19 138 -19 145 0 156 1 174 21 18 20 19 44 22 438 2 229 0 431 -3 449 -3 18 -15 42 -26 53 -18 18 -34 19 -218 19 -158 0 -201 3 -210 14 -20 24 -2 64 43 94 32 22 42 35 44 60 2 19 -3 40 -10 49 -39 48 -161 67 -243 38z"/>
<path d="M9015 6638 c-93 -34 -108 -112 -29 -154 35 -19 49 -46 42 -81 -3 -17 -20 -18 -212 -23 -204 -5 -208 -5 -227 -29 -18 -22 -19 -45 -19 -465 l0 -443 23 -21 c22 -21 33 -22 177 -22 l153 0 -24 26 c-19 20 -24 37 -24 74 0 61 24 97 91 130 41 21 63 25 139 25 100 0 154 -20 194 -71 40 -50 40 -120 0 -162 l-20 -22 154 0 c148 0 154 1 175 23 22 23 22 25 22 464 0 419 -1 442 -19 464 -19 24 -23 24 -228 29 l-208 5 -3 32 c-3 29 2 36 43 65 25 18 48 43 52 56 8 33 -14 68 -56 89 -43 20 -154 27 -196 11z"/>
<path d="M1347 6502 c-23 -25 -22 -31 9 -59 16 -14 23 -28 18 -33 -5 -5 -52 -10 -104 -12 l-95 -3 0 -215 0 -215 72 -3 73 -3 -11 25 c-10 20 -9 30 5 51 35 53 127 59 175 11 23 -23 24 -29 14 -56 l-12 -31 72 3 72 3 0 215 0 215 -97 3 c-89 2 -98 4 -98 22 0 11 9 24 20 30 25 14 26 46 1 60 -32 17 -96 12 -114 -8z"/>
<path d="M5638 6509 c-24 -13 -23 -46 2 -61 11 -7 20 -21 20 -30 0 -16 -11 -18 -95 -18 -83 0 -96 -2 -105 -19 -6 -12 -10 -95 -10 -201 0 -106 4 -189 10 -201 9 -16 22 -19 80 -19 66 0 69 1 59 18 -7 11 -9 31 -5 46 13 54 112 71 173 30 22 -14 25 -21 20 -55 l-5 -39 62 0 c35 0 67 5 74 12 9 9 12 69 12 208 0 139 -3 199 -12 208 -8 8 -45 12 -99 12 -99 0 -115 10 -75 46 32 30 32 38 4 58 -25 18 -84 21 -110 5z"/>
<path d="M9917 6502 c-22 -24 -21 -39 3 -52 11 -6 20 -19 20 -30 0 -18 -9 -20 -97 -22 l-98 -3 0 -215 0 -215 72 -3 73 -3 -11 25 c-10 20 -9 30 5 51 35 53 127 59 175 11 23 -23 24 -29 14 -56 l-12 -31 72 3 72 3 0 215 0 215 -97 3 c-89 2 -98 4 -98 22 0 11 9 24 20 30 25 14 26 46 1 60 -32 17 -96 12 -114 -8z"/>
<path d="M2597 6393 c-4 -3 -7 -100 -7 -214 0 -179 2 -208 16 -213 9 -3 54 -6 100 -6 77 0 84 -2 84 -20 0 -10 -9 -24 -20 -30 -26 -14 -25 -35 2 -54 42 -30 128 -10 128 29 0 8 -9 19 -20 25 -11 6 -20 19 -20 30 0 18 9 20 98 22 l97 3 0 215 0 215 -72 3 -73 3 11 -25 c26 -57 -59 -111 -135 -86 -49 16 -73 52 -58 85 l12 25 -69 0 c-37 0 -71 -3 -74 -7z"/>
<path d="M6882 6388 c-15 -15 -17 -380 -2 -409 9 -17 22 -19 105 -19 102 0 115 -8 75 -45 -41 -37 -15 -75 52 -75 33 0 78 23 78 40 0 5 -12 20 -26 34 -40 36 -24 46 75 46 54 0 91 4 99 12 17 17 17 399 0 416 -7 7 -39 12 -74 12 l-62 0 5 -39 c5 -34 2 -41 -20 -55 -61 -41 -160 -24 -173 30 -4 15 -2 35 5 46 10 17 7 18 -57 18 -40 0 -73 -5 -80 -12z"/>
<path d="M11167 6393 c-4 -3 -7 -100 -7 -214 0 -179 2 -208 16 -213 9 -3 54 -6 100 -6 77 0 84 -2 84 -20 0 -10 -9 -24 -20 -30 -26 -14 -25 -35 2 -54 42 -30 128 -10 128 29 0 8 -9 19 -20 25 -11 6 -20 19 -20 30 0 18 9 20 98 22 l97 3 0 215 0 215 -72 3 -73 3 11 -25 c26 -57 -59 -111 -135 -86 -49 16 -73 52 -58 85 l12 25 -69 0 c-37 0 -71 -3 -74 -7z"/>
<path d="M3195 6355 l-25 -24 0 -439 c0 -418 1 -441 19 -463 19 -24 23 -24 228 -29 l208 -5 3 -37 c3 -34 0 -39 -38 -63 -72 -46 -74 -96 -5 -141 39 -26 155 -31 210 -9 86 32 97 90 28 140 -45 32 -62 68 -46 94 9 14 40 16 209 19 187 2 199 4 221 24 l23 21 0 447 0 447 -23 21 c-22 21 -33 22 -176 22 l-152 0 21 -22 c47 -51 39 -127 -19 -179 -52 -46 -111 -63 -205 -57 -161 10 -250 120 -181 222 l24 36 -150 0 c-146 0 -151 -1 -174 -25z"/>
<path d="M7480 6360 c-19 -19 -20 -33 -20 -470 0 -437 1 -451 20 -470 19 -19 33 -20 219 -20 163 0 201 -3 211 -15 20 -24 3 -63 -40 -91 -102 -67 -34 -164 115 -164 62 0 129 23 153 53 7 9 12 30 10 48 -2 26 -12 39 -42 60 -45 30 -61 61 -46 90 10 18 23 19 208 19 163 0 201 3 220 16 l22 15 0 459 0 459 -22 15 c-18 13 -53 16 -171 16 l-148 0 22 -30 c28 -37 30 -104 4 -143 -10 -15 -39 -40 -64 -55 -42 -24 -55 -27 -146 -27 -91 0 -104 2 -147 28 -27 15 -55 41 -63 57 -21 40 -19 99 5 138 l20 32 -150 0 c-137 0 -152 -2 -170 -20z"/>
<path d="M11765 6355 l-25 -24 0 -441 0 -441 25 -24 c24 -25 26 -25 214 -25 104 0 196 -3 205 -6 10 -4 16 -18 16 -40 0 -28 -6 -38 -40 -59 -51 -32 -65 -58 -50 -94 16 -40 63 -63 140 -69 76 -5 126 8 164 43 43 40 32 71 -52 137 -26 21 -30 73 -6 82 9 3 102 6 208 6 188 0 193 1 214 23 22 23 22 25 22 468 l0 446 -23 21 c-22 21 -33 22 -177 22 l-153 0 24 -26 c19 -21 24 -36 24 -81 0 -52 -2 -57 -42 -92 -51 -46 -99 -61 -190 -61 -56 0 -80 5 -124 28 -94 48 -123 123 -74 196 l24 36 -150 0 c-146 0 -151 -1 -174 -25z"/>
<path d="M1352 6034 c-29 -20 -28 -35 3 -62 14 -13 23 -27 20 -32 -3 -6 -46 -10 -94 -10 -63 0 -92 -4 -100 -14 -8 -9 -11 -78 -9 -227 l3 -214 214 -3 c149 -2 218 1 227 9 9 8 14 33 14 75 0 35 -2 64 -4 64 -3 0 -17 -5 -31 -10 -23 -9 -30 -6 -56 19 -68 68 -14 209 66 173 25 -12 25 -11 25 39 0 83 -7 89 -105 89 -74 0 -85 2 -85 18 0 9 9 23 20 30 11 7 20 19 20 27 0 21 -40 45 -75 45 -17 0 -41 -7 -53 -16z"/>
<path d="M5643 6038 c-29 -14 -30 -49 -3 -66 11 -7 20 -19 20 -27 0 -12 -17 -15 -89 -15 -68 0 -93 -4 -105 -16 -14 -13 -16 -47 -16 -213 0 -142 3 -202 13 -214 11 -16 34 -17 227 -15 l215 3 3 72 3 73 -24 -9 c-36 -14 -70 8 -85 54 -15 45 -9 84 19 120 22 27 57 33 77 13 9 -9 12 1 12 48 0 33 -5 65 -12 72 -7 7 -44 12 -95 12 -92 0 -103 9 -57 49 29 25 27 41 -7 58 -29 15 -66 15 -96 1z"/>
<path d="M9922 6034 c-29 -20 -28 -35 3 -62 14 -13 23 -27 20 -32 -3 -6 -46 -10 -94 -10 -63 0 -92 -4 -100 -14 -8 -9 -11 -78 -9 -227 l3 -214 214 -3 c149 -2 218 1 227 9 9 8 14 33 14 76 0 62 -1 64 -22 58 -31 -10 -30 -10 -54 -2 -49 17 -62 130 -19 172 26 27 46 31 76 15 18 -10 19 -7 19 40 0 84 -7 90 -105 90 -74 0 -85 2 -85 18 0 9 9 23 20 30 11 7 20 19 20 27 0 21 -40 45 -75 45 -17 0 -41 -7 -53 -16z"/>
<path d="M1667 5934 c-4 -4 -7 -49 -7 -101 0 -86 -2 -93 -20 -93 -10 0 -24 9 -30 20 -14 25 -46 26 -60 1 -17 -34 -12 -96 10 -116 20 -18 21 -18 49 9 16 16 34 25 40 22 7 -5 11 -44 11 -101 0 -75 3 -94 16 -99 31 -12 399 -7 412 6 7 7 12 40 12 76 0 57 -2 63 -17 57 -49 -21 -92 10 -100 71 -11 82 46 148 99 115 18 -11 19 -8 16 61 l-3 73 -211 3 c-115 1 -213 -1 -217 -4z"/>
<path d="M2136 5924 c-3 -8 -6 -54 -6 -100 0 -73 -2 -84 -18 -84 -9 0 -23 9 -30 20 -27 44 -72 8 -72 -58 0 -30 25 -72 43 -72 6 0 21 12 32 27 34 42 45 23 45 -76 0 -63 4 -92 14 -100 9 -8 75 -11 217 -9 l204 3 3 72 3 73 -24 -9 c-36 -14 -70 8 -85 54 -15 45 -9 84 19 120 22 27 57 33 77 13 10 -10 12 2 10 62 l-3 75 -211 3 c-187 2 -212 0 -218 -14z"/>
<path d="M5952 5928 c-8 -8 -12 -45 -12 -100 0 -70 -3 -88 -14 -88 -8 0 -21 9 -30 21 -35 50 -87 -14 -67 -81 15 -50 38 -58 68 -25 13 14 28 25 33 25 6 0 10 -38 10 -86 0 -132 -15 -124 225 -124 235 0 225 -4 225 95 0 54 -1 56 -22 50 -31 -10 -30 -10 -54 -2 -46 16 -61 123 -23 171 22 28 48 33 80 16 18 -10 19 -7 19 53 0 36 -5 68 -12 75 -9 9 -70 12 -213 12 -143 0 -204 -3 -213 -12z"/>
<path d="M6427 5934 c-4 -4 -7 -49 -7 -101 0 -86 -2 -93 -20 -93 -10 0 -24 9 -30 20 -14 25 -46 26 -60 1 -17 -34 -12 -96 10 -116 20 -18 21 -18 50 10 19 18 34 25 40 19 5 -5 10 -52 12 -104 l3 -95 204 -3 c142 -2 208 1 217 9 9 8 14 33 14 76 0 54 -3 64 -15 59 -8 -3 -21 -9 -29 -12 -26 -10 -68 38 -73 87 -9 81 42 139 97 109 21 -11 21 -10 18 62 l-3 73 -211 3 c-115 1 -213 -1 -217 -4z"/>
<path d="M10237 5934 c-4 -4 -7 -49 -7 -101 0 -86 -2 -93 -20 -93 -10 0 -24 9 -30 20 -14 25 -46 26 -60 1 -17 -34 -12 -96 10 -116 20 -18 21 -18 50 10 19 18 34 25 40 19 5 -5 10 -52 12 -104 l3 -95 204 -3 c142 -2 208 1 217 9 9 8 14 33 14 76 0 58 -2 64 -17 58 -51 -22 -93 11 -100 77 -9 80 47 142 99 109 18 -11 19 -8 16 61 l-3 73 -211 3 c-115 1 -213 -1 -217 -4z"/>
<path d="M10707 5934 c-4 -4 -7 -49 -7 -101 0 -82 -2 -93 -18 -93 -9 0 -23 9 -30 20 -27 44 -72 8 -72 -58 0 -29 24 -72 40 -72 5 0 20 12 34 26 36 40 46 24 46 -75 0 -63 4 -92 14 -100 9 -8 75 -11 217 -9 l204 3 3 72 3 73 -24 -9 c-54 -21 -103 44 -91 119 10 63 69 101 102 68 10 -10 12 2 10 62 l-3 75 -211 3 c-115 1 -213 -1 -217 -4z"/>
<path d="M2610 5911 c-5 -11 -10 -54 -10 -95 0 -60 -3 -76 -14 -76 -8 0 -21 9 -30 21 -35 50 -87 -14 -67 -81 15 -50 38 -58 68 -25 13 14 28 25 33 25 6 0 10 -39 10 -88 0 -55 5 -95 13 -105 11 -16 34 -17 227 -15 l215 3 3 219 c2 169 -1 221 -10 228 -7 4 -41 8 -76 8 -61 0 -62 -1 -52 -21 28 -51 -21 -99 -99 -99 -31 0 -49 7 -73 29 -31 27 -32 31 -21 60 l11 31 -59 0 c-47 0 -60 -4 -69 -19z"/>
<path d="M6902 5918 c-7 -7 -12 -44 -12 -95 0 -73 -2 -83 -18 -83 -9 0 -23 9 -30 20 -7 11 -21 20 -32 20 -37 0 -54 -86 -24 -128 20 -28 28 -28 58 4 36 40 46 24 46 -75 0 -54 4 -91 12 -99 17 -17 419 -17 436 0 17 17 17 419 0 436 -7 7 -39 12 -74 12 l-62 0 5 -38 c7 -49 -19 -73 -84 -79 -63 -5 -113 23 -113 65 0 15 5 33 12 40 9 9 -1 12 -48 12 -33 0 -65 -5 -72 -12z"/>
<path d="M11180 5911 c-5 -11 -10 -54 -10 -95 0 -60 -3 -76 -14 -76 -8 0 -21 9 -30 21 -35 50 -87 -14 -67 -81 15 -50 38 -58 68 -25 13 14 28 25 33 25 6 0 10 -39 10 -88 0 -55 5 -95 13 -105 11 -16 34 -17 227 -15 l215 3 3 219 c2 169 -1 221 -10 228 -7 4 -41 8 -75 8 l-63 0 12 -25 c22 -49 -25 -95 -98 -95 -73 0 -121 50 -94 99 10 20 8 21 -49 21 -49 0 -62 -4 -71 -19z"/>
<path d="M422 5570 c-77 -35 -78 -97 -2 -145 36 -23 41 -30 38 -58 l-3 -32 -202 -5 c-196 -5 -202 -6 -227 -29 l-26 -24 0 -463 c0 -440 1 -463 19 -485 l19 -24 464 -3 c459 -3 465 -2 491 18 l27 21 0 155 0 155 -31 -23 c-41 -31 -103 -31 -146 0 -54 38 -78 103 -78 207 0 98 17 146 68 194 37 34 106 40 152 13 l35 -21 0 125 c0 128 -6 155 -37 170 -10 5 -99 11 -198 14 l-180 5 -3 32 c-3 28 2 35 38 58 76 48 77 106 1 145 -54 27 -159 27 -219 0z"/>
<path d="M4720 5579 c-86 -34 -95 -108 -19 -151 22 -12 42 -32 45 -45 13 -50 10 -51 -209 -55 -185 -3 -207 -5 -226 -22 -21 -19 -21 -24 -21 -492 l0 -473 26 -20 c26 -21 37 -21 475 -21 307 0 456 3 472 11 40 18 47 50 47 200 l0 140 -28 -20 c-62 -44 -129 -35 -180 24 -40 45 -56 96 -56 180 0 88 35 174 86 205 44 28 118 23 153 -10 l25 -23 0 131 c0 124 -1 132 -24 159 l-24 28 -186 3 c-174 3 -185 4 -191 23 -8 26 17 64 54 83 68 35 50 114 -32 145 -35 14 -153 13 -187 0z"/>
<path d="M8992 5570 c-77 -35 -78 -97 -2 -145 36 -23 41 -30 38 -58 l-3 -32 -202 -5 c-196 -5 -202 -6 -227 -29 l-26 -24 0 -463 c0 -440 1 -463 19 -485 l19 -24 464 -3 c459 -3 465 -2 491 18 l27 21 0 155 0 155 -31 -23 c-38 -28 -103 -31 -141 -6 -46 30 -80 101 -86 178 -7 99 12 163 63 216 37 39 47 44 86 44 26 0 57 -8 77 -20 l32 -20 0 126 c0 128 -6 155 -37 170 -10 5 -99 11 -198 14 l-180 5 -3 32 c-3 28 2 35 38 58 76 48 77 106 1 145 -54 27 -159 27 -219 0z"/>
<path d="M1124 5346 c-17 -13 -19 -31 -24 -222 -4 -175 -7 -208 -21 -217 -26 -17 -65 0 -88 38 -63 108 -161 42 -161 -109 0 -154 94 -223 161 -119 19 30 31 39 58 41 20 2 37 -2 42 -10 5 -7 9 -102 9 -210 l0 -197 27 -21 c26 -20 32 -21 471 -18 l444 3 19 24 c17 20 19 40 19 173 l0 149 -26 -20 c-79 -62 -185 -15 -223 98 -6 19 -11 68 -11 111 0 133 62 220 156 220 26 0 51 -7 67 -20 14 -11 28 -20 31 -20 3 0 6 65 6 145 0 142 -1 147 -25 170 l-24 25 -444 0 c-367 0 -447 -2 -463 -14z"/>
<path d="M2179 5341 c-24 -19 -24 -23 -29 -228 l-5 -208 -35 0 c-29 0 -38 6 -63 42 -30 45 -68 63 -96 46 -29 -18 -60 -74 -67 -120 -8 -56 10 -143 37 -177 39 -49 101 -30 138 42 10 19 19 23 49 20 l37 -3 5 -200 c3 -110 9 -207 13 -216 18 -37 49 -39 488 -39 l431 0 29 29 29 29 0 147 0 146 -30 -21 c-74 -53 -156 -28 -205 62 -26 47 -30 63 -30 138 0 71 4 93 25 135 34 68 80 98 143 92 26 -2 55 -11 65 -21 10 -9 22 -16 26 -16 4 0 6 68 4 151 -3 145 -4 152 -27 170 -22 18 -45 19 -466 19 -421 0 -444 -1 -466 -19z"/>
<path d="M5409 5341 c-24 -19 -24 -23 -29 -228 l-5 -208 -35 0 c-29 0 -38 6 -63 42 -32 48 -66 62 -102 43 -72 -38 -86 -216 -24 -294 17 -22 28 -26 57 -24 30 2 41 10 65 46 26 39 32 43 66 40 l36 -3 6 -210 c3 -115 6 -211 7 -212 1 -1 15 -9 32 -18 25 -13 93 -15 459 -15 l430 0 28 24 28 24 3 151 c2 83 1 151 -3 151 -3 0 -20 -10 -36 -22 -41 -31 -103 -31 -146 0 -54 38 -78 103 -78 207 0 98 17 146 68 194 37 34 106 40 152 12 20 -11 38 -21 41 -21 9 0 3 259 -7 289 -6 17 -19 36 -29 41 -12 6 -191 10 -458 10 -418 0 -441 -1 -463 -19z"/>
<path d="M6462 5337 c-20 -22 -22 -34 -24 -221 -3 -169 -5 -200 -19 -209 -26 -16 -64 0 -90 39 -32 50 -51 61 -86 49 -42 -15 -73 -84 -73 -161 0 -103 36 -164 96 -164 28 0 38 7 64 46 29 41 35 45 68 42 l37 -3 5 -208 c5 -205 5 -209 29 -228 23 -19 41 -19 468 -17 l445 3 19 24 c17 20 19 40 19 172 l0 150 -31 -23 c-40 -30 -107 -31 -146 -2 -15 11 -41 45 -56 75 -26 50 -28 61 -25 144 3 72 9 98 28 133 44 78 128 104 198 62 l32 -20 0 148 c0 142 -1 149 -23 170 -23 22 -25 22 -468 22 l-446 0 -21 -23z"/>
<path d="M9690 5340 c-19 -19 -20 -33 -20 -211 0 -112 -4 -198 -10 -210 -14 -25 -55 -25 -76 0 -74 87 -90 95 -133 65 -34 -24 -51 -74 -51 -151 0 -151 94 -219 161 -116 19 30 31 39 58 41 20 2 37 -2 42 -10 5 -7 9 -102 9 -210 l0 -197 26 -20 c26 -21 37 -21 456 -21 451 0 475 2 492 45 3 9 6 82 6 162 l0 144 -25 -20 c-58 -44 -132 -35 -184 24 -38 44 -51 91 -51 185 0 135 60 220 156 220 26 0 51 -7 67 -20 14 -11 28 -20 31 -20 3 0 6 65 6 145 0 142 -1 147 -25 170 l-24 25 -446 0 c-432 0 -446 -1 -465 -20z"/>
<path d="M10749 5341 c-24 -19 -24 -23 -29 -228 l-5 -208 -35 0 c-29 0 -38 6 -63 42 -30 45 -68 63 -96 46 -29 -18 -60 -74 -67 -120 -8 -56 10 -143 37 -177 39 -49 101 -30 138 42 10 19 19 23 49 20 l37 -3 5 -200 c3 -110 9 -207 13 -216 18 -37 49 -39 488 -39 l431 0 29 29 29 29 0 147 0 146 -28 -19 c-75 -54 -158 -30 -207 60 -26 47 -30 63 -30 138 0 71 4 93 25 135 34 68 80 98 143 92 26 -2 55 -11 65 -21 10 -9 22 -16 25 -16 4 0 7 61 7 135 0 141 -10 185 -45 199 -9 3 -214 6 -455 6 -416 0 -439 -1 -461 -19z"/>
<path d="M3248 5314 c-16 -8 -29 -16 -30 -17 -1 -1 -4 -87 -7 -191 -5 -158 -9 -191 -22 -199 -28 -17 -64 0 -88 43 -56 99 -147 44 -159 -96 -8 -110 34 -188 99 -182 27 2 39 12 62 46 26 39 32 43 66 40 l36 -3 5 -207 c4 -182 7 -210 23 -225 16 -17 50 -18 488 -18 l471 0 19 24 c18 22 19 45 19 481 0 252 -3 466 -6 475 -14 35 -58 45 -199 45 -74 0 -135 -2 -135 -5 0 -2 9 -19 20 -37 44 -72 13 -152 -75 -197 -42 -22 -63 -26 -135 -26 -99 0 -165 25 -202 78 -31 44 -31 111 0 155 l23 32 -123 0 c-89 -1 -130 -5 -150 -16z"/>
<path d="M7540 5317 c-44 -22 -50 -49 -50 -235 0 -144 -2 -174 -15 -178 -29 -11 -62 6 -89 46 -67 101 -160 32 -159 -120 0 -148 98 -215 164 -113 20 32 30 38 59 38 l35 0 5 -203 5 -204 28 -24 28 -24 453 0 c443 0 454 0 480 21 l26 20 0 473 c0 468 0 473 -21 492 -18 17 -40 19 -170 22 -146 3 -167 -1 -135 -28 26 -21 39 -76 27 -113 -45 -136 -299 -171 -413 -57 -34 33 -38 43 -38 87 0 35 6 58 20 76 11 14 20 28 20 31 0 12 -235 6 -260 -7z"/>
<path d="M11818 5314 c-16 -8 -29 -16 -30 -17 -1 -1 -4 -87 -7 -191 -5 -158 -9 -191 -22 -199 -28 -17 -64 0 -88 43 -59 105 -161 33 -161 -115 0 -62 23 -129 53 -153 9 -7 30 -12 49 -10 25 2 38 12 61 46 26 39 32 43 66 40 l36 -3 5 -207 c4 -182 7 -210 23 -225 16 -17 50 -18 488 -18 l471 0 19 24 c18 22 19 45 19 481 0 252 -3 466 -6 475 -14 35 -58 45 -199 45 -74 0 -135 -2 -135 -5 0 -2 9 -19 20 -37 44 -72 13 -152 -75 -197 -42 -22 -63 -26 -135 -26 -99 0 -165 25 -202 78 -31 44 -31 114 0 156 l23 31 -123 0 c-89 -1 -131 -5 -150 -16z"/>
<path d="M43 4220 c-12 -5 -26 -18 -32 -29 -7 -13 -11 -172 -11 -474 0 -444 0 -455 21 -481 l20 -26 150 0 149 0 -20 37 c-40 75 -14 146 70 193 39 22 57 25 140 25 103 0 150 -16 199 -68 34 -37 40 -106 13 -152 l-21 -35 127 0 c95 0 133 4 148 14 17 13 19 31 24 202 4 157 8 188 21 197 26 17 65 0 88 -38 63 -108 160 -40 161 112 0 102 -36 163 -96 163 -28 0 -38 -7 -64 -46 -29 -41 -35 -45 -68 -42 l-37 3 -5 208 c-5 205 -5 209 -29 228 -22 18 -45 19 -475 18 -248 0 -461 -4 -473 -9z"/>
<path d="M1126 4209 l-26 -20 0 -155 0 -155 22 20 c12 12 36 24 54 27 110 21 194 -100 181 -261 -11 -149 -124 -236 -224 -175 l-33 20 0 -150 c0 -141 1 -150 22 -170 21 -19 33 -20 464 -20 420 0 443 1 465 19 24 19 24 23 29 228 l5 208 32 3 c29 3 36 -2 65 -43 37 -52 67 -64 103 -41 42 28 60 73 60 156 0 83 -21 135 -64 156 -34 17 -60 6 -95 -43 -27 -39 -34 -44 -66 -41 l-35 3 -5 208 c-5 205 -5 209 -29 228 -22 18 -45 19 -461 19 -427 0 -438 0 -464 -21z"/>
<path d="M2192 4223 c-32 -13 -42 -61 -42 -203 l0 -141 26 20 c55 44 126 37 177 -17 42 -44 60 -99 60 -182 1 -177 -114 -282 -227 -205 l-36 24 0 -150 c0 -146 1 -151 25 -174 l24 -25 441 0 c267 0 449 4 459 10 10 5 23 17 27 27 5 10 11 108 14 218 l5 200 35 0 c29 0 38 -6 63 -42 33 -50 66 -62 103 -38 81 53 75 272 -9 313 -34 17 -66 1 -99 -48 -20 -29 -30 -35 -58 -35 l-35 0 -5 200 c-3 110 -9 207 -13 216 -18 37 -48 39 -490 38 -238 0 -438 -3 -445 -6z"/>
<path d="M3235 4205 c-24 -23 -25 -28 -25 -174 l0 -150 36 24 c62 42 129 27 177 -37 34 -47 47 -91 47 -167 0 -94 -16 -139 -65 -188 -37 -37 -48 -43 -85 -43 -26 0 -56 8 -76 21 l-34 21 0 -129 c0 -180 -11 -172 230 -175 l185 -3 3 -37 c3 -34 0 -39 -38 -63 -51 -32 -67 -68 -45 -101 27 -41 62 -57 140 -62 62 -4 81 -1 120 18 76 37 84 95 18 136 -15 10 -34 24 -40 33 -18 21 -16 68 3 75 9 3 102 6 208 6 188 0 193 1 214 23 22 23 22 25 22 486 l0 462 -25 24 -24 25 -461 0 -461 0 -24 -25z"/>
<path d="M4316 4209 l-26 -20 0 -470 c0 -456 1 -470 20 -489 18 -18 33 -20 172 -20 147 0 151 1 134 19 -45 49 -37 133 17 183 69 63 226 77 323 28 86 -45 114 -133 64 -202 l-21 -28 134 0 c181 0 171 -13 177 229 l5 186 35 0 c29 0 38 -6 63 -42 33 -50 66 -62 102 -39 71 47 84 203 23 288 -36 52 -100 33 -137 -40 -10 -19 -19 -23 -49 -20 l-37 3 -5 200 c-3 110 -9 207 -13 216 -18 37 -48 39 -506 39 -438 0 -449 0 -475 -21z"/>
<path d="M5405 4205 c-24 -23 -25 -28 -25 -175 l0 -151 26 20 c58 46 130 36 184 -25 37 -43 50 -90 50 -185 0 -138 -69 -227 -166 -216 -28 3 -55 13 -70 28 l-24 22 0 -152 c0 -148 1 -153 25 -176 l24 -25 444 0 444 0 24 26 c23 25 24 31 29 227 l5 202 32 3 c28 3 35 -2 58 -38 32 -50 65 -68 100 -52 84 39 88 274 4 317 -37 20 -65 8 -98 -41 -22 -32 -34 -40 -63 -42 l-37 -3 -3 206 -3 207 -28 24 -28 24 -440 0 -440 0 -24 -25z"/>
<path d="M6466 4209 l-26 -20 0 -154 0 -154 38 25 c67 46 143 19 192 -67 22 -38 25 -56 25 -139 0 -103 -16 -150 -68 -199 -37 -34 -106 -40 -152 -13 l-35 21 0 -148 c0 -141 1 -148 23 -169 23 -22 25 -22 466 -22 l442 0 24 25 c25 24 25 26 25 214 0 104 3 196 6 205 15 38 93 6 109 -44 8 -24 49 -44 78 -36 80 20 104 240 33 304 -46 41 -82 33 -121 -28 -24 -38 -29 -41 -63 -38 l-37 3 -5 208 c-5 205 -5 209 -29 228 -22 18 -45 19 -461 19 -427 0 -438 0 -464 -21z"/>
<path d="M7519 4201 l-29 -29 0 -147 0 -146 33 23 c41 29 110 31 150 4 16 -11 40 -42 55 -70 22 -43 26 -64 27 -136 0 -73 -4 -93 -26 -135 -45 -88 -125 -119 -197 -75 -18 11 -35 20 -38 20 -3 0 -4 -59 -2 -131 4 -177 -7 -169 227 -169 124 0 181 -4 189 -12 29 -29 4 -76 -55 -107 -28 -14 -39 -55 -24 -87 44 -98 321 -75 321 26 0 31 -13 49 -57 79 -37 25 -52 64 -33 86 10 12 47 15 209 15 162 0 200 3 219 16 l22 15 0 474 0 474 -26 20 c-26 21 -37 21 -481 21 l-455 0 -29 -29z"/>
<path d="M8613 4220 c-12 -5 -26 -18 -32 -29 -7 -13 -11 -172 -11 -474 0 -444 0 -455 21 -481 l20 -26 150 0 149 0 -20 37 c-40 75 -14 146 70 193 39 22 57 25 140 25 83 0 101 -3 140 -25 84 -47 112 -128 70 -197 l-20 -33 128 0 c95 0 133 4 148 14 17 13 19 31 24 202 4 157 8 188 21 197 26 17 65 0 88 -38 61 -105 160 -40 161 105 0 112 -38 174 -101 168 -27 -2 -39 -12 -62 -46 -26 -39 -32 -43 -66 -40 l-36 3 -5 208 c-5 205 -5 209 -29 228 -22 18 -45 19 -475 18 -248 0 -461 -4 -473 -9z"/>
<path d="M9697 4210 c-26 -20 -26 -23 -29 -174 l-3 -154 30 22 c41 29 113 29 152 0 15 -12 39 -43 53 -70 21 -41 25 -62 25 -134 0 -71 -4 -93 -25 -135 -44 -88 -126 -119 -198 -75 -18 11 -33 20 -35 20 -1 0 0 -70 3 -155 5 -139 7 -156 25 -169 17 -13 84 -15 461 -16 420 0 443 1 465 19 24 19 24 23 29 228 l5 208 32 3 c29 3 36 -2 65 -43 37 -52 67 -64 103 -41 42 28 60 73 60 156 0 83 -21 135 -64 156 -34 17 -60 6 -95 -43 -27 -39 -34 -44 -66 -41 l-35 3 -5 208 c-5 205 -5 209 -29 228 -22 18 -45 19 -461 19 -425 0 -438 -1 -463 -20z"/>
<path d="M10745 4205 c-24 -23 -25 -28 -25 -175 l0 -151 26 20 c76 60 175 22 220 -84 27 -64 24 -177 -8 -247 -34 -74 -74 -101 -141 -95 -32 3 -56 12 -72 27 l-25 23 0 -152 c0 -148 1 -153 25 -176 l24 -25 441 0 c267 0 449 4 459 10 10 5 23 17 27 27 5 10 11 108 14 218 l5 200 35 0 c29 0 38 -6 63 -42 33 -50 66 -62 103 -38 81 53 75 272 -8 313 -36 17 -65 4 -97 -44 -23 -33 -33 -39 -61 -39 l-35 0 -5 203 -5 204 -28 24 -28 24 -440 0 -440 0 -24 -25z"/>
<path d="M11805 4205 c-24 -23 -25 -28 -25 -174 l0 -150 36 24 c73 49 148 20 197 -74 52 -104 32 -257 -44 -326 -47 -42 -102 -47 -155 -14 l-34 21 0 -129 c0 -180 -11 -172 230 -175 l185 -3 3 -37 c3 -34 0 -39 -38 -63 -54 -34 -69 -66 -46 -99 28 -43 62 -59 141 -64 61 -4 81 -1 118 17 57 28 77 68 53 106 -9 13 -29 31 -45 39 -42 22 -59 87 -25 100 9 3 102 6 208 6 188 0 193 1 214 23 22 23 22 25 22 486 l0 462 -25 24 -24 25 -461 0 -461 0 -24 -25z"/>
<path d="M422 3380 c-77 -35 -78 -97 -2 -145 31 -20 40 -31 40 -53 0 -50 -9 -52 -220 -52 -192 0 -197 0 -218 -23 -22 -23 -22 -25 -22 -466 l0 -442 25 -24 c23 -24 28 -25 175 -25 l151 0 -21 28 c-46 62 -33 136 32 185 47 34 91 47 167 47 90 0 136 -15 183 -59 54 -50 62 -108 24 -163 l-25 -38 150 0 c146 0 151 1 174 25 l25 24 0 443 c-1 379 -3 446 -16 463 -14 19 -30 20 -221 25 -174 4 -207 7 -216 21 -17 26 0 65 38 88 108 64 41 161 -112 161 -45 0 -82 -7 -111 -20z"/>
<path d="M4720 3389 c-66 -26 -91 -91 -50 -126 86 -74 100 -102 61 -123 -12 -6 -99 -10 -214 -10 -175 0 -195 -2 -210 -18 -15 -17 -17 -64 -17 -470 l0 -451 22 -21 c20 -18 35 -20 171 -20 l149 0 -21 34 c-27 42 -27 101 -1 144 67 109 333 111 410 2 28 -40 29 -99 1 -146 l-20 -34 149 0 c136 0 152 2 170 20 11 11 22 30 25 42 3 13 4 215 3 449 -3 404 -4 428 -22 448 -18 20 -29 21 -217 21 -168 0 -200 2 -214 16 -20 21 -11 52 23 81 15 12 35 29 45 38 39 34 10 99 -56 124 -35 14 -153 13 -187 0z"/>
<path d="M8992 3380 c-77 -35 -78 -97 -2 -145 31 -20 40 -31 40 -53 0 -50 -9 -52 -222 -52 -190 0 -198 -1 -218 -22 -19 -21 -20 -33 -20 -465 l0 -444 25 -24 c23 -24 28 -25 174 -25 l150 0 -24 36 c-42 62 -27 129 37 177 47 34 91 47 167 47 90 0 136 -15 183 -59 54 -50 62 -108 24 -163 l-25 -38 150 0 c146 0 151 1 174 25 l25 24 0 444 0 444 -23 21 c-22 20 -34 22 -221 24 -169 3 -200 5 -209 19 -17 26 0 65 38 88 108 64 41 161 -112 161 -45 0 -82 -7 -111 -20z"/>
<path d="M3363 3133 c-150 -3 -152 -4 -172 -30 -20 -25 -21 -37 -21 -455 0 -365 2 -433 15 -458 9 -17 17 -31 18 -32 1 -1 96 -4 212 -7 193 -6 210 -7 213 -24 7 -35 -7 -62 -41 -80 -69 -37 -68 -100 3 -141 27 -16 52 -21 110 -21 83 0 128 18 156 60 23 36 11 69 -39 102 -36 25 -42 34 -42 63 l0 35 208 5 c205 5 209 5 228 29 18 22 19 45 19 465 0 366 -2 446 -14 462 -13 17 -31 20 -170 24 -86 3 -156 4 -156 3 0 -2 9 -17 20 -35 44 -72 13 -152 -75 -197 -42 -22 -63 -26 -135 -26 -99 0 -165 25 -202 78 -31 44 -31 111 0 155 13 17 22 31 20 30 -2 -1 -71 -4 -155 -5z"/>
<path d="M7645 3132 c-139 -2 -151 -4 -167 -23 -17 -20 -18 -57 -18 -469 l0 -449 26 -20 c25 -20 40 -21 225 -21 l199 0 6 -24 c8 -32 -5 -54 -52 -86 -74 -50 -49 -124 51 -149 117 -29 235 15 235 89 0 25 -8 36 -44 62 -25 17 -47 42 -51 55 -12 50 2 53 210 53 179 0 194 1 219 21 l26 20 0 453 c0 421 -1 454 -18 469 -14 13 -47 17 -170 19 -83 2 -152 0 -152 -3 0 -4 7 -12 14 -19 26 -21 39 -76 27 -113 -45 -136 -299 -171 -413 -57 -34 33 -38 43 -38 87 0 36 6 58 21 77 12 15 20 28 18 29 -2 1 -71 1 -154 -1z"/>
<path d="M12460 3133 c0 -2 9 -17 20 -35 44 -72 13 -152 -75 -197 -42 -22 -63 -26 -135 -26 -72 0 -93 4 -134 25 -88 45 -116 115 -77 190 l21 40 -149 0 -150 0 -20 -26 c-21 -26 -21 -37 -21 -464 0 -416 1 -439 19 -461 19 -24 23 -24 227 -29 192 -5 209 -6 212 -23 7 -35 -7 -62 -42 -81 -47 -25 -64 -67 -42 -101 28 -42 73 -60 156 -60 83 0 128 18 156 60 23 36 11 69 -39 102 -36 25 -42 34 -42 63 l0 35 208 5 c205 5 209 5 228 29 18 22 19 45 19 465 0 366 -2 446 -14 462 -13 17 -31 20 -170 24 -86 3 -156 4 -156 3z"/>
<path d="M1183 3053 c-18 -7 -19 -423 -1 -441 7 -7 39 -12 75 -12 l63 0 -12 25 c-22 49 25 95 98 95 73 0 121 -50 94 -99 -10 -20 -8 -21 49 -21 74 0 81 9 81 114 0 83 7 91 46 55 28 -26 51 -19 65 18 14 38 3 90 -23 104 -19 10 -25 8 -43 -15 -36 -46 -45 -34 -45 60 0 132 15 124 -228 123 -114 0 -213 -3 -219 -6z"/>
<path d="M1673 3053 c-9 -3 -13 -28 -13 -74 0 -67 1 -68 23 -60 77 29 129 -110 66 -178 -22 -23 -58 -28 -77 -9 -10 10 -12 -2 -10 -62 l3 -75 215 0 215 0 3 98 c2 84 5 97 20 97 9 0 23 -9 30 -20 7 -11 21 -20 32 -20 37 0 54 86 24 128 -20 28 -28 28 -58 -4 -36 -40 -46 -24 -46 75 0 54 -4 91 -12 99 -9 9 -68 12 -207 11 -108 0 -202 -3 -208 -6z"/>
<path d="M2142 3048 c-7 -7 -12 -39 -12 -76 0 -53 3 -63 15 -58 8 3 21 9 29 12 26 10 68 -38 73 -87 9 -81 -42 -139 -97 -109 -21 11 -21 10 -18 -62 l3 -73 215 0 215 0 3 98 c2 88 4 97 22 97 11 0 24 -9 30 -20 14 -25 46 -26 60 -1 17 34 12 96 -10 116 -20 18 -21 18 -50 -10 -19 -18 -34 -25 -40 -19 -5 5 -10 52 -12 104 l-3 95 -205 3 c-152 2 -209 -1 -218 -10z"/>
<path d="M2610 3041 c-5 -11 -10 -45 -10 -76 0 -54 1 -56 23 -50 64 20 97 -14 97 -98 0 -74 -47 -115 -101 -87 -18 10 -19 7 -19 -44 0 -76 12 -86 110 -86 43 0 81 -4 85 -9 3 -6 -7 -21 -21 -34 -32 -30 -27 -52 13 -68 35 -14 92 -1 107 24 9 15 7 22 -11 37 -13 10 -23 25 -23 34 0 13 14 16 89 16 63 0 92 4 100 14 8 9 11 78 9 227 l-3 214 -217 3 c-207 2 -218 1 -228 -17z"/>
<path d="M5460 3041 c-6 -12 -10 -99 -10 -215 0 -231 -2 -226 98 -226 51 0 63 3 54 12 -7 7 -12 25 -12 40 0 42 50 70 113 65 65 -6 91 -30 84 -79 l-5 -38 52 0 c29 0 57 5 64 12 7 7 12 44 12 95 0 76 2 83 20 83 10 0 24 -9 30 -20 14 -25 46 -26 60 -1 17 34 12 96 -10 116 -20 18 -21 18 -49 -9 -16 -16 -34 -25 -40 -22 -7 5 -11 44 -11 101 0 75 -3 94 -16 99 -9 3 -107 6 -219 6 -192 0 -205 -1 -215 -19z"/>
<path d="M5950 3041 c-5 -11 -10 -45 -10 -76 0 -54 1 -56 23 -50 30 10 29 10 53 2 46 -16 61 -123 23 -171 -22 -28 -48 -33 -80 -16 -18 10 -19 7 -19 -53 0 -36 5 -68 12 -75 17 -17 409 -17 426 0 8 8 12 45 12 100 0 70 3 88 14 88 8 0 21 -9 30 -21 35 -50 87 14 67 81 -15 50 -38 58 -68 25 -13 -14 -28 -25 -33 -25 -6 0 -10 38 -10 86 0 132 15 124 -225 124 -192 0 -205 -1 -215 -19z"/>
<path d="M6427 3053 c-4 -3 -7 -37 -7 -74 0 -68 0 -68 23 -60 36 14 70 -8 85 -54 15 -45 9 -84 -19 -120 -22 -27 -57 -33 -77 -13 -10 10 -12 -2 -10 -62 l3 -75 209 -3 c161 -2 211 1 218 10 4 7 8 52 8 101 0 76 2 87 18 87 9 0 23 -9 30 -20 27 -44 72 -8 72 58 0 30 -25 72 -43 72 -6 0 -21 -12 -32 -27 -34 -42 -45 -23 -45 76 0 54 -4 91 -12 99 -13 13 -409 18 -421 5z"/>
<path d="M6902 3048 c-7 -7 -12 -40 -12 -76 0 -57 2 -63 18 -57 48 21 91 -10 99 -71 11 -81 -46 -148 -99 -115 -17 10 -18 7 -18 -47 0 -32 5 -63 12 -70 7 -7 44 -12 95 -12 67 0 83 -3 83 -15 0 -8 -9 -20 -20 -27 -52 -33 3 -87 75 -74 50 10 63 39 30 68 -46 40 -34 48 68 48 59 0 97 4 105 12 17 17 17 419 0 436 -17 17 -419 17 -436 0z"/>
<path d="M9753 3053 c-18 -7 -19 -423 -1 -441 7 -7 39 -12 75 -12 62 0 63 1 53 21 -27 49 21 99 95 99 74 0 122 -50 95 -99 -10 -20 -8 -21 44 -21 77 0 86 12 86 111 0 62 3 79 14 79 8 0 21 -9 30 -21 35 -50 87 14 67 81 -15 50 -40 59 -66 26 -36 -45 -45 -34 -45 60 0 132 15 124 -228 123 -114 0 -213 -3 -219 -6z"/>
<path d="M10237 3053 c-4 -3 -7 -37 -7 -74 0 -67 1 -68 23 -60 78 30 129 -108 64 -176 -23 -25 -56 -30 -75 -11 -10 10 -12 -2 -10 -62 l3 -75 215 0 215 0 3 98 c2 84 5 97 20 97 9 0 23 -9 30 -20 27 -44 72 -8 72 58 0 29 -24 72 -40 72 -5 0 -20 -12 -34 -26 -36 -40 -46 -24 -46 75 0 54 -4 91 -12 99 -13 13 -409 18 -421 5z"/>
<path d="M10712 3048 c-7 -7 -12 -39 -12 -76 0 -57 2 -63 18 -57 50 22 92 -11 99 -77 9 -80 -42 -137 -97 -108 -21 11 -21 10 -18 -62 l3 -73 215 0 215 0 3 98 c2 88 4 97 22 97 11 0 24 -9 30 -20 14 -25 46 -26 60 -1 17 34 12 96 -10 116 -20 18 -21 18 -50 -10 -19 -18 -34 -25 -40 -19 -5 5 -10 52 -12 104 l-3 95 -205 3 c-152 2 -209 -1 -218 -10z"/>
<path d="M11180 3041 c-10 -20 -14 -131 -4 -131 3 0 14 5 24 10 25 13 64 -5 79 -37 18 -40 14 -107 -10 -137 -22 -28 -48 -33 -80 -16 -18 10 -19 7 -19 -44 0 -77 12 -86 111 -86 66 0 79 -3 79 -16 0 -9 -10 -24 -22 -33 -43 -36 14 -81 81 -64 48 12 63 39 34 63 -13 10 -23 25 -23 34 0 13 14 16 89 16 63 0 92 4 100 14 8 9 11 78 9 227 l-3 214 -217 3 c-207 2 -218 1 -228 -17z"/>
<path d="M1352 2674 c-29 -20 -28 -31 4 -61 16 -14 23 -28 18 -33 -5 -5 -52 -10 -104 -12 l-95 -3 0 -215 0 -215 72 -3 73 -3 -11 24 c-36 78 118 129 182 61 20 -22 22 -28 12 -55 l-12 -30 72 3 72 3 0 215 0 215 -97 3 c-85 2 -98 5 -98 20 0 9 9 23 20 30 25 16 26 48 1 62 -29 15 -83 12 -109 -6z"/>
<path d="M5638 2679 c-24 -13 -23 -46 2 -61 11 -7 20 -21 20 -30 0 -16 -11 -18 -95 -18 -83 0 -96 -2 -105 -19 -6 -12 -10 -95 -10 -201 0 -106 4 -189 10 -201 9 -16 22 -19 80 -19 66 0 69 1 59 18 -45 72 85 131 168 76 22 -14 25 -21 20 -55 l-5 -39 62 0 c35 0 67 5 74 12 9 9 12 69 12 208 0 139 -3 199 -12 208 -8 8 -45 12 -99 12 -99 0 -115 10 -75 46 32 30 32 38 4 58 -25 18 -84 21 -110 5z"/>
<path d="M9922 2674 c-27 -19 -28 -40 -2 -54 11 -6 20 -19 20 -30 0 -18 -9 -20 -97 -22 l-98 -3 0 -215 0 -215 72 -3 73 -3 -11 24 c-36 78 118 129 182 61 20 -22 22 -28 12 -55 l-12 -30 72 3 72 3 0 215 0 215 -97 3 c-89 2 -98 4 -98 22 0 11 9 24 20 30 25 13 26 38 3 56 -24 18 -84 17 -111 -2z"/>
<path d="M2594 2557 c-2 -7 -3 -105 -2 -217 l3 -205 98 -3 c88 -2 97 -4 97 -22 0 -11 -9 -24 -20 -30 -26 -14 -25 -35 2 -54 42 -30 128 -10 128 29 0 8 -9 19 -20 25 -11 6 -20 19 -20 30 0 18 9 20 98 22 l97 3 0 215 0 215 -72 3 -72 3 12 -30 c10 -27 8 -33 -13 -56 -44 -47 -136 -43 -173 8 -17 22 -19 31 -9 52 l12 25 -71 0 c-47 0 -71 -4 -75 -13z"/>
<path d="M6882 2558 c-15 -15 -17 -380 -2 -409 9 -17 22 -19 105 -19 84 0 95 -2 95 -18 0 -9 -9 -23 -20 -30 -25 -16 -26 -48 -1 -62 29 -15 83 -12 109 6 28 20 28 28 -4 58 -40 36 -24 46 75 46 54 0 91 4 99 12 17 17 17 399 0 416 -7 7 -39 12 -74 12 l-62 0 5 -39 c5 -34 2 -41 -20 -55 -61 -41 -160 -24 -173 30 -4 15 -2 35 5 46 10 17 7 18 -57 18 -40 0 -73 -5 -80 -12z"/>
<path d="M11164 2557 c-2 -7 -3 -105 -2 -217 l3 -205 98 -3 c88 -2 97 -4 97 -22 0 -11 -9 -24 -20 -30 -26 -14 -25 -35 2 -54 42 -30 128 -10 128 29 0 8 -9 19 -20 25 -11 6 -20 19 -20 30 0 18 9 20 98 22 l97 3 0 215 0 215 -72 3 -73 3 12 -26 c10 -22 8 -30 -9 -53 -40 -54 -136 -54 -176 0 -17 23 -19 31 -9 53 l12 25 -71 0 c-47 0 -71 -4 -75 -13z"/>
<path d="M465 2341 c-110 -28 -134 -103 -51 -159 35 -24 41 -33 41 -62 l0 -35 -208 -5 c-205 -5 -209 -5 -228 -29 -18 -22 -19 -45 -19 -461 0 -241 3 -446 6 -455 14 -35 58 -45 204 -45 l141 0 -23 33 c-31 43 -31 110 -1 153 37 52 104 78 203 78 73 1 93 -3 135 -25 92 -47 120 -129 70 -203 l-24 -36 140 0 c145 0 189 10 203 45 3 9 6 214 6 455 0 416 -1 439 -19 461 -19 24 -23 24 -228 29 l-208 5 0 35 c0 29 6 38 42 63 24 15 46 39 49 53 8 30 -16 68 -56 89 -35 18 -133 27 -175 16z"/>
<path d="M4738 2338 c-52 -14 -88 -50 -88 -88 0 -25 8 -36 45 -62 48 -34 60 -56 50 -88 -6 -19 -15 -20 -204 -20 -185 0 -200 -1 -225 -21 l-26 -20 0 -453 c0 -448 0 -453 21 -472 18 -17 40 -19 170 -22 82 -2 149 0 149 3 0 4 -9 18 -20 32 -14 18 -20 41 -20 76 0 44 4 54 38 87 142 142 458 47 411 -124 -5 -19 -16 -39 -24 -46 -33 -27 -12 -31 135 -28 140 3 151 4 172 26 l23 23 0 445 0 446 -28 24 c-28 24 -31 24 -221 24 -211 0 -223 3 -210 54 3 15 16 31 28 38 41 21 66 51 66 80 0 72 -126 117 -242 86z"/>
<path d="M9035 2341 c-110 -28 -134 -103 -51 -159 35 -24 41 -33 41 -62 l0 -35 -208 -5 c-205 -5 -209 -5 -228 -29 -18 -22 -19 -45 -19 -461 0 -241 3 -446 6 -455 14 -35 58 -45 204 -45 l141 0 -23 33 c-31 43 -31 110 -1 153 37 52 104 78 203 78 73 1 93 -3 135 -25 92 -47 120 -129 70 -203 l-24 -36 140 0 c145 0 189 10 203 45 3 9 6 214 6 455 0 416 -1 439 -19 461 -19 24 -23 24 -228 29 l-208 5 0 35 c0 29 6 38 42 63 24 15 46 39 49 53 8 30 -16 68 -56 89 -35 18 -133 27 -175 16z"/>
<path d="M1362 2210 c-35 -15 -38 -39 -8 -67 14 -13 24 -28 21 -34 -4 -5 -46 -9 -94 -9 -63 0 -92 -4 -100 -14 -8 -9 -11 -75 -9 -217 l3 -204 73 -3 c70 -3 73 -2 63 17 -16 29 -14 39 14 66 20 21 34 25 80 25 46 0 60 -4 80 -25 27 -26 32 -54 13 -73 -10 -10 2 -12 62 -10 l75 3 3 204 c2 142 -1 208 -9 217 -8 10 -37 14 -100 14 -78 0 -89 2 -89 18 0 9 9 23 20 30 59 37 -25 91 -98 62z"/>
<path d="M5643 2208 c-29 -14 -30 -49 -3 -66 11 -7 20 -19 20 -27 0 -12 -17 -15 -89 -15 -68 0 -93 -4 -105 -16 -13 -13 -16 -46 -16 -208 0 -136 3 -195 12 -204 7 -7 41 -12 82 -12 54 0 67 3 58 12 -20 20 -13 55 14 77 38 30 121 29 153 0 17 -16 22 -30 19 -56 l-4 -34 70 3 71 3 3 204 c2 142 -1 208 -9 217 -8 10 -38 14 -105 14 -103 0 -114 8 -67 46 31 25 26 49 -12 64 -33 13 -64 12 -92 -2z"/>
<path d="M9932 2210 c-35 -15 -38 -39 -8 -67 14 -13 24 -28 21 -34 -4 -5 -46 -9 -94 -9 -63 0 -92 -4 -100 -14 -8 -9 -11 -75 -9 -217 l3 -204 73 -3 c70 -3 73 -2 63 17 -16 29 -14 39 14 66 20 21 34 25 80 25 46 0 60 -4 80 -25 28 -27 30 -37 14 -66 -10 -19 -7 -20 63 -17 l73 3 3 204 c2 142 -1 208 -9 217 -8 10 -37 14 -100 14 -75 0 -89 3 -89 16 0 9 10 24 22 33 50 41 -30 89 -100 61z"/>
<path d="M2601 2086 c-8 -9 -11 -75 -9 -217 l3 -204 98 -3 c88 -2 97 -4 97 -22 0 -11 -9 -24 -20 -30 -25 -14 -26 -46 -1 -60 25 -13 87 -13 112 0 25 14 24 46 -1 60 -11 6 -20 19 -20 30 0 18 9 20 98 22 l97 3 3 209 c2 161 -1 211 -10 218 -7 4 -41 8 -76 8 -61 0 -62 -1 -52 -21 27 -49 -21 -99 -95 -99 -74 0 -122 50 -95 99 10 20 9 21 -53 21 -43 0 -68 -5 -76 -14z"/>
<path d="M6880 2081 c-15 -29 -13 -394 2 -409 8 -8 45 -12 100 -12 74 0 90 -3 95 -17 4 -11 -1 -22 -15 -31 -24 -16 -28 -42 -10 -60 21 -21 102 -15 123 8 18 20 18 21 -9 46 -42 40 -30 49 74 52 60 2 97 7 102 15 13 21 10 401 -4 415 -7 7 -39 12 -74 12 l-62 0 5 -38 c4 -30 1 -41 -17 -57 -31 -28 -129 -28 -159 -1 -23 21 -28 65 -9 84 9 9 -4 12 -60 12 -60 0 -73 -3 -82 -19z"/>
<path d="M11171 2086 c-8 -9 -11 -75 -9 -217 l3 -204 98 -3 c88 -2 97 -4 97 -22 0 -11 -9 -24 -20 -30 -25 -14 -26 -46 -1 -60 25 -13 87 -13 112 0 25 14 24 46 -1 60 -11 6 -20 19 -20 30 0 18 9 20 98 22 l97 3 3 204 c2 142 -1 208 -9 217 -8 9 -33 14 -76 14 -62 0 -63 -1 -53 -21 27 -49 -21 -99 -95 -99 -74 0 -122 50 -95 99 10 20 9 21 -53 21 -43 0 -68 -5 -76 -14z"/>
<path d="M3195 2055 l-25 -24 0 -439 c0 -429 0 -440 21 -466 l20 -26 194 0 c106 0 200 -3 209 -6 10 -4 16 -18 16 -40 0 -28 -6 -38 -41 -61 -109 -72 -46 -162 114 -163 153 0 220 97 112 161 -38 23 -55 62 -38 88 9 14 42 17 217 21 191 5 209 7 222 24 12 16 14 96 14 463 l0 444 -25 24 c-23 24 -28 25 -176 25 l-152 0 22 -24 c34 -36 39 -105 12 -150 -65 -105 -296 -122 -393 -29 -54 51 -61 122 -17 177 l20 26 -151 0 c-147 0 -152 -1 -175 -25z"/>
<path d="M7486 2059 l-26 -20 0 -450 c0 -436 1 -450 20 -469 19 -19 33 -20 211 -20 196 0 229 -6 229 -40 0 -34 -12 -51 -50 -70 -76 -39 -64 -116 23 -149 36 -14 148 -14 184 0 67 25 95 90 54 125 -86 73 -95 89 -65 118 13 14 47 16 213 16 179 0 199 2 214 18 15 17 17 64 17 470 0 439 -1 453 -20 472 -18 18 -33 20 -171 20 l-150 0 19 -27 c61 -87 16 -185 -103 -224 -107 -35 -262 2 -305 73 -26 43 -26 102 1 144 l21 34 -145 0 c-131 0 -147 -2 -171 -21z"/>
<path d="M11765 2055 l-25 -24 0 -439 c0 -429 0 -440 21 -466 l20 -26 198 0 c212 0 221 -2 221 -52 0 -21 -10 -34 -44 -58 -51 -34 -61 -56 -46 -94 23 -62 186 -89 271 -46 76 39 75 97 -1 145 -31 20 -40 31 -40 53 0 50 9 52 222 52 185 0 199 1 218 20 19 19 20 33 20 465 l0 446 -25 24 c-23 24 -28 25 -176 25 l-152 0 22 -24 c14 -15 25 -41 28 -68 6 -63 -21 -106 -90 -142 -97 -50 -247 -37 -315 27 -57 52 -66 113 -27 171 l24 36 -150 0 c-146 0 -151 -1 -174 -25z"/>
<path d="M1372 1738 c-45 -12 -50 -33 -18 -67 38 -39 20 -50 -90 -53 l-89 -3 0 -220 0 -220 214 -3 c149 -2 218 1 227 9 9 8 14 33 14 75 0 64 -6 74 -27 53 -18 -18 -61 -1 -78 31 -42 82 11 194 76 159 27 -14 29 -12 29 40 0 80 -1 81 -96 81 -70 0 -86 3 -91 17 -4 10 2 23 15 34 54 43 -4 88 -86 67z"/>
<path d="M5670 1742 c-52 -8 -67 -48 -28 -74 14 -9 19 -20 15 -31 -5 -14 -22 -17 -101 -17 -76 0 -95 -3 -100 -16 -3 -9 -6 -105 -6 -214 0 -155 3 -200 14 -209 9 -8 78 -11 227 -9 l214 3 3 72 3 73 -25 -11 c-20 -10 -30 -9 -50 4 -79 52 -33 226 50 188 l25 -11 -3 62 -3 63 -70 3 c-120 4 -136 14 -90 54 14 12 25 24 25 27 -1 27 -54 50 -100 43z"/>
<path d="M9942 1738 c-43 -11 -50 -33 -22 -63 39 -42 22 -54 -82 -57 l-93 -3 0 -220 0 -220 214 -3 c149 -2 218 1 227 9 9 8 14 33 14 75 0 64 -6 74 -27 53 -18 -18 -61 -1 -78 31 -42 81 10 195 74 161 30 -16 31 -15 31 38 0 80 -1 81 -96 81 -97 0 -113 13 -73 56 18 19 21 29 13 42 -14 22 -60 31 -102 20z"/>
<path d="M1667 1633 c-4 -3 -7 -48 -7 -99 0 -51 -4 -96 -10 -99 -5 -3 -21 5 -34 19 -28 31 -37 32 -59 8 -19 -21 -22 -83 -7 -113 14 -25 46 -24 60 1 6 11 19 20 30 20 18 0 20 -9 22 -97 l3 -98 215 0 215 0 3 73 c3 72 3 73 -18 62 -64 -34 -122 60 -90 144 14 39 55 61 85 48 l25 -12 0 63 c0 36 -5 68 -12 75 -13 13 -409 18 -421 5z"/>
<path d="M2142 1628 c-8 -8 -12 -44 -12 -99 0 -48 -4 -91 -10 -94 -5 -3 -19 6 -32 20 -27 31 -42 32 -62 3 -30 -42 -10 -128 29 -128 8 0 20 9 27 20 7 11 21 20 30 20 16 0 18 -11 18 -87 0 -49 4 -94 8 -101 7 -9 57 -12 218 -10 l209 3 3 75 c2 60 0 72 -10 62 -18 -18 -52 -15 -72 7 -64 71 -16 217 60 182 l25 -11 -3 73 -3 72 -205 3 c-152 2 -209 -1 -218 -10z"/>
<path d="M5950 1621 c-5 -11 -10 -56 -10 -100 0 -44 -4 -82 -9 -86 -6 -3 -21 7 -35 22 -21 23 -29 26 -43 17 -24 -15 -37 -73 -24 -107 14 -37 37 -44 65 -18 40 37 46 28 46 -67 0 -55 4 -92 12 -100 17 -17 409 -17 426 0 14 14 16 138 3 138 -6 0 -13 -4 -16 -10 -11 -18 -45 -11 -70 15 -62 61 -6 213 64 176 30 -17 31 -15 31 45 0 98 10 94 -225 94 -192 0 -205 -1 -215 -19z"/>
<path d="M6427 1633 c-4 -3 -7 -48 -7 -100 0 -82 -2 -93 -18 -93 -10 0 -25 9 -35 20 -20 24 -31 25 -51 4 -18 -18 -21 -85 -6 -115 14 -25 46 -24 60 1 6 11 19 20 30 20 18 0 20 -9 22 -97 l3 -98 209 -3 c161 -2 211 1 218 10 4 7 8 41 8 76 0 61 -1 62 -21 52 -89 -48 -141 129 -54 186 21 13 31 15 50 6 l25 -12 0 63 c0 36 -5 68 -12 75 -13 13 -409 18 -421 5z"/>
<path d="M10237 1633 c-4 -3 -7 -48 -7 -99 0 -51 -4 -95 -9 -99 -5 -3 -22 6 -37 20 -32 29 -37 30 -58 9 -18 -18 -21 -85 -6 -115 14 -25 46 -24 60 1 6 11 19 20 30 20 18 0 20 -9 22 -97 l3 -98 215 0 215 0 3 72 3 73 -26 -12 c-85 -39 -132 126 -53 185 23 17 32 19 53 9 l25 -12 0 63 c0 36 -5 68 -12 75 -13 13 -409 18 -421 5z"/>
<path d="M10712 1628 c-8 -8 -12 -44 -12 -99 0 -48 -4 -91 -10 -94 -5 -3 -21 5 -34 19 -29 32 -40 32 -60 4 -30 -42 -10 -128 29 -128 8 0 20 9 27 20 7 11 21 20 30 20 16 0 18 -11 18 -87 0 -49 4 -94 8 -101 7 -9 57 -12 218 -10 l209 3 3 72 3 72 -30 -12 c-25 -9 -33 -8 -51 8 -11 10 -25 35 -31 55 -23 75 31 157 87 131 l25 -11 -3 73 -3 72 -205 3 c-152 2 -209 -1 -218 -10z"/>
<path d="M2622 1614 c-20 -13 -22 -24 -22 -94 0 -43 -4 -81 -9 -85 -6 -3 -21 7 -35 22 -21 22 -29 26 -43 17 -37 -23 -37 -115 -1 -138 13 -8 22 -5 41 12 40 38 47 29 47 -61 0 -51 5 -90 13 -100 11 -16 34 -17 227 -15 l215 3 3 215 c3 248 6 240 -90 240 -54 0 -72 -10 -48 -25 18 -11 11 -45 -15 -70 -20 -21 -34 -25 -80 -25 -47 0 -60 4 -81 26 -25 24 -26 35 -9 77 6 15 1 17 -42 17 -28 0 -58 -7 -71 -16z"/>
<path d="M6908 1619 c-15 -8 -18 -25 -18 -94 0 -46 -4 -87 -10 -90 -5 -3 -21 5 -34 19 -29 32 -40 32 -60 4 -30 -42 -10 -128 29 -128 8 0 20 9 27 20 7 11 21 20 30 20 15 0 18 -13 20 -97 l3 -98 219 -3 c169 -2 221 1 228 10 4 7 8 106 8 220 0 238 4 228 -95 228 -54 0 -55 -1 -49 -25 15 -62 -20 -95 -100 -95 -29 0 -52 7 -71 22 -24 18 -26 26 -21 60 l6 38 -47 0 c-27 0 -56 -5 -65 -11z"/>
<path d="M11200 1623 c-25 -10 -30 -25 -30 -105 0 -42 -4 -79 -9 -83 -6 -3 -21 7 -35 22 -21 23 -29 26 -44 17 -24 -15 -36 -72 -23 -107 15 -37 37 -44 65 -18 40 37 46 28 46 -68 0 -63 4 -92 14 -100 9 -8 78 -11 227 -9 l214 3 3 215 c3 248 6 240 -90 240 -54 0 -72 -10 -48 -25 18 -11 11 -45 -15 -70 -20 -21 -34 -25 -80 -25 -46 0 -60 4 -80 25 -26 25 -33 59 -15 70 6 3 10 10 10 16 0 10 -85 11 -110 2z"/>
<path d="M443 1279 c-30 -9 -83 -60 -83 -80 0 -23 23 -51 60 -74 34 -21 40 -31 40 -59 0 -22 -6 -36 -16 -40 -9 -3 -103 -6 -209 -6 l-194 0 -20 -26 c-21 -26 -21 -36 -21 -510 l0 -484 488 0 489 0 21 23 c21 22 22 33 22 177 l0 153 -24 -22 c-15 -14 -42 -25 -68 -28 -55 -6 -103 24 -138 87 -22 39 -25 57 -25 140 0 105 19 158 71 199 50 40 120 40 162 0 l22 -20 0 134 c0 99 -4 138 -14 153 -13 17 -31 19 -202 24 -157 4 -188 8 -197 21 -16 26 1 62 43 92 23 15 44 35 47 43 21 56 -61 115 -161 113 -34 0 -75 -5 -93 -10z"/>
<path d="M4713 1270 c-77 -34 -82 -98 -13 -144 43 -28 60 -67 40 -91 -10 -12 -48 -15 -211 -15 -186 0 -200 -1 -219 -20 -19 -19 -20 -33 -20 -490 l0 -469 22 -21 c21 -20 33 -20 485 -20 l464 0 24 25 c24 23 25 28 25 174 l0 150 -37 -25 c-30 -20 -47 -25 -79 -21 -58 6 -90 31 -121 95 -39 81 -39 183 0 264 31 64 63 89 121 95 32 4 49 -1 79 -21 l37 -25 0 130 c0 125 -1 131 -25 154 -24 25 -26 25 -203 25 -147 0 -182 3 -192 15 -20 24 -3 62 43 92 33 23 43 36 45 61 2 19 -3 40 -10 49 -42 52 -177 69 -255 33z"/>
<path d="M9020 1281 c-42 -13 -69 -34 -81 -62 -14 -36 0 -62 51 -94 34 -21 40 -31 40 -59 0 -22 -6 -36 -16 -40 -9 -3 -103 -6 -209 -6 l-194 0 -20 -26 c-21 -26 -21 -36 -21 -486 l0 -459 25 -24 24 -25 459 0 c450 0 460 0 486 21 l26 20 0 156 0 156 -24 -22 c-15 -14 -42 -25 -68 -28 -55 -6 -103 24 -138 87 -22 39 -25 57 -25 140 0 83 3 101 25 140 35 63 83 93 138 87 26 -3 53 -14 68 -28 l24 -22 0 136 c0 186 11 177 -216 177 -95 0 -179 3 -188 6 -16 6 -22 51 -8 69 4 6 24 22 44 38 65 48 59 100 -14 136 -46 22 -136 27 -188 12z"/>
<path d="M1126 1039 l-26 -20 0 -198 c0 -212 -2 -221 -52 -221 -21 0 -34 10 -58 44 -34 50 -56 61 -93 47 -90 -34 -90 -288 0 -322 37 -14 59 -3 93 47 24 34 37 44 58 44 50 0 52 -9 52 -220 0 -192 0 -197 23 -218 23 -22 25 -22 466 -22 l442 0 24 25 c24 23 25 28 25 174 l0 150 -37 -25 c-73 -50 -160 -15 -204 81 -13 29 -19 63 -19 125 0 62 6 96 19 125 44 96 131 131 204 81 l37 -25 0 150 c0 146 -1 151 -25 174 l-24 25 -439 0 c-429 0 -440 0 -466 -21z"/>
<path d="M2192 1053 c-31 -12 -37 -50 -42 -248 l-5 -200 -35 0 c-29 0 -38 6 -62 41 -33 49 -69 62 -104 39 -41 -26 -58 -73 -58 -155 0 -82 17 -129 58 -155 35 -23 71 -10 104 39 24 35 33 41 62 41 l35 0 5 -208 c5 -205 5 -209 29 -228 22 -18 45 -19 461 -19 241 0 446 3 455 6 35 14 45 58 45 203 l0 140 -37 -25 c-31 -21 -46 -25 -82 -21 -56 6 -90 32 -121 93 -21 41 -25 62 -25 134 0 72 4 93 26 135 47 92 129 120 203 70 l36 -24 0 140 c0 141 -6 171 -39 196 -12 9 -125 12 -456 12 -242 0 -446 -3 -453 -6z"/>
<path d="M5409 1041 c-24 -19 -24 -23 -29 -227 -5 -192 -6 -209 -23 -212 -35 -7 -62 7 -81 42 -25 47 -67 64 -101 42 -42 -28 -60 -73 -60 -156 0 -83 18 -128 60 -156 34 -22 76 -5 101 42 19 35 46 49 81 42 17 -3 18 -20 23 -212 5 -204 5 -208 29 -227 22 -18 45 -19 465 -19 l443 0 24 26 c23 24 24 33 27 176 l3 150 -31 -22 c-77 -55 -163 -28 -210 65 -21 42 -25 64 -25 135 0 71 4 93 25 135 46 92 130 120 204 70 l37 -25 -3 151 -3 151 -28 24 -28 24 -438 0 c-417 0 -440 -1 -462 -19z"/>
<path d="M6466 1039 l-26 -20 0 -194 c0 -106 -3 -200 -6 -209 -4 -10 -18 -16 -40 -16 -29 0 -38 6 -59 40 -32 50 -60 65 -98 51 -90 -35 -88 -283 2 -321 38 -15 63 -2 96 50 21 34 31 40 59 40 22 0 36 -6 40 -16 3 -9 6 -103 6 -209 l0 -194 26 -20 c26 -21 37 -21 466 -21 l439 0 24 25 c24 23 25 28 25 176 l0 152 -24 -22 c-32 -30 -94 -38 -134 -17 -66 34 -102 110 -102 216 0 106 36 182 102 216 40 21 102 13 134 -17 l24 -22 0 152 c0 148 -1 153 -25 176 l-24 25 -439 0 c-429 0 -440 0 -466 -21z"/>
<path d="M9696 1039 l-26 -20 0 -198 c0 -212 -2 -221 -52 -221 -21 0 -34 10 -58 45 -50 72 -102 70 -140 -5 -28 -55 -28 -166 0 -221 37 -72 95 -72 143 0 21 32 34 41 55 41 50 0 52 -9 52 -220 0 -192 0 -197 23 -218 23 -22 25 -22 466 -22 l442 0 24 25 c24 23 25 28 25 174 l0 150 -37 -25 c-73 -50 -160 -15 -204 81 -13 29 -19 64 -19 126 0 75 4 94 28 139 45 87 124 114 196 65 l36 -24 0 150 c0 146 -1 151 -25 174 l-24 25 -439 0 c-429 0 -440 0 -466 -21z"/>
<path d="M10749 1041 c-24 -19 -24 -23 -29 -228 l-5 -208 -35 0 c-29 0 -38 6 -62 41 -33 49 -69 62 -104 39 -41 -26 -58 -73 -58 -155 0 -82 17 -129 58 -155 35 -23 69 -10 105 41 28 40 35 45 64 42 l32 -3 5 -208 c5 -205 5 -209 29 -228 22 -18 45 -19 465 -19 331 1 445 4 457 13 33 25 39 55 39 196 l0 140 -37 -25 c-31 -21 -46 -25 -82 -21 -56 6 -90 32 -121 93 -21 41 -25 62 -25 134 0 72 4 93 26 135 47 92 129 120 203 70 l36 -24 0 139 c0 149 -7 181 -47 199 -16 7 -161 11 -457 11 -412 0 -435 -1 -457 -19z"/>
<path d="M3232 997 c-20 -21 -22 -34 -24 -207 l-3 -185 -32 -3 c-24 -2 -37 3 -50 19 -38 48 -72 79 -86 79 -27 0 -73 -48 -85 -88 -26 -86 -8 -187 41 -228 45 -38 53 -34 132 58 11 13 26 18 48 16 l32 -3 5 -208 c5 -205 5 -209 29 -228 22 -18 45 -19 483 -19 l459 0 24 25 25 24 0 464 0 464 -23 21 c-22 21 -33 22 -170 22 l-146 0 21 -35 c27 -46 21 -115 -13 -152 -49 -52 -96 -68 -199 -68 -83 0 -101 3 -140 25 -63 35 -93 83 -87 138 3 26 14 53 28 68 l22 24 -135 0 c-127 0 -136 -1 -156 -23z"/>
<path d="M7519 1001 c-23 -19 -24 -25 -29 -208 l-5 -188 -35 0 c-29 0 -38 6 -63 42 -33 50 -66 62 -103 38 -81 -53 -75 -272 8 -313 36 -17 65 -4 97 44 23 33 33 39 61 39 l35 0 6 -205 c3 -113 6 -206 7 -207 43 -46 12 -43 507 -43 450 0 462 0 483 20 l22 21 0 474 0 474 -22 15 c-18 13 -53 16 -171 16 l-148 0 21 -27 c50 -70 22 -158 -64 -203 -88 -44 -250 -35 -311 18 -59 50 -73 128 -34 183 l20 29 -129 0 c-113 0 -133 -2 -153 -19z"/>
<path d="M11802 997 c-20 -21 -22 -34 -24 -207 -3 -170 -4 -185 -21 -188 -34 -7 -67 8 -82 38 -24 46 -59 65 -93 51 -49 -20 -67 -65 -67 -161 0 -96 18 -141 67 -161 34 -14 69 5 93 51 15 30 47 45 82 38 17 -3 18 -20 23 -212 5 -204 5 -208 29 -227 22 -18 46 -19 507 -19 l484 0 0 488 0 489 -23 21 c-22 21 -33 22 -171 22 l-148 0 21 -34 c43 -69 15 -149 -69 -196 -39 -22 -57 -25 -140 -25 -83 0 -101 3 -140 25 -63 35 -93 83 -87 138 3 26 14 53 28 68 l22 24 -135 0 c-127 0 -136 -1 -156 -23z"/>
</g>
</svg>